<?xml version="1.0" encoding="UTF-8" standalone="no"?>
<!-- Created with Inkscape (http://www.inkscape.org/) -->

<svg
   xmlns:dc="http://purl.org/dc/elements/1.1/"
   xmlns:cc="http://creativecommons.org/ns#"
   xmlns:rdf="http://www.w3.org/1999/02/22-rdf-syntax-ns#"
   xmlns:svg="http://www.w3.org/2000/svg"
   xmlns="http://www.w3.org/2000/svg"
   xmlns:sodipodi="http://sodipodi.sourceforge.net/DTD/sodipodi-0.dtd"
   xmlns:inkscape="http://www.inkscape.org/namespaces/inkscape"
   width="117.70376mm"
   height="34.109203mm"
   viewBox="0 0 417.06056 120.85938"
   id="svg5006"
   version="1.1"
   inkscape:version="0.91 r13725"
   sodipodi:docname="contact.svg">
  <defs
     id="defs5008" />
  <sodipodi:namedview
     id="base"
     pagecolor="#ffffff"
     bordercolor="#666666"
     borderopacity="1.0"
     inkscape:pageopacity="0.0"
     inkscape:pageshadow="2"
     inkscape:zoom="1.4"
     inkscape:cx="218.58537"
     inkscape:cy="-43.809136"
     inkscape:document-units="px"
     inkscape:current-layer="layer1"
     showgrid="false"
     fit-margin-top="0"
     fit-margin-left="0"
     fit-margin-right="0"
     fit-margin-bottom="0"
     inkscape:window-width="1920"
     inkscape:window-height="1016"
     inkscape:window-x="0"
     inkscape:window-y="27"
     inkscape:window-maximized="1" />
  <metadata
     id="metadata5011">
    <rdf:RDF>
      <cc:Work
         rdf:about="">
        <dc:format>image/svg+xml</dc:format>
        <dc:type
           rdf:resource="http://purl.org/dc/dcmitype/StillImage" />
        <dc:title></dc:title>
      </cc:Work>
    </rdf:RDF>
  </metadata>
  <g
     inkscape:label="SilkS"
     inkscape:groupmode="layer"
     id="layer1"
     transform="translate(1331.4032,-133.22331)">
    <g
       style="font-style:normal;font-weight:normal;font-size:40px;line-height:125%;font-family:sans-serif;letter-spacing:0px;word-spacing:0px;fill:#000000;fill-opacity:1;stroke:none;stroke-width:1px;stroke-linecap:butt;stroke-linejoin:miter;stroke-opacity:1"
       id="text4395">
      <path
         d="m -1266.9916,157.23454 q 1.6919,0 2.9566,-1.02539 1.2646,-1.02539 1.4013,-2.56347 l 2.9907,0 q -0.085,1.58935 -1.0937,3.0249 -1.0083,1.43554 -2.7002,2.29004 -1.6748,0.85449 -3.5547,0.85449 -3.7768,0 -6.0156,-2.51221 -2.2217,-2.5293 -2.2217,-6.9043 l 0,-0.52978 q 0,-2.7002 0.9912,-4.80225 0.9912,-2.10205 2.8369,-3.26416 1.8628,-1.16211 4.3921,-1.16211 3.1104,0 5.1612,1.8628 2.0678,1.86279 2.2045,4.83642 l -2.9907,0 q -0.1367,-1.79443 -1.3672,-2.93945 -1.2133,-1.16211 -3.0078,-1.16211 -2.4097,0 -3.7427,1.74316 -1.3159,1.72608 -1.3159,5.00733 l 0,0.59814 q 0,3.1958 1.3159,4.92188 1.316,1.72607 3.7598,1.72607 z"
         style="font-style:normal;font-variant:normal;font-weight:normal;font-stretch:normal;font-size:35.00000381px;line-height:125%;font-family:Roboto;-inkscape-font-specification:Roboto;text-align:center;text-anchor:middle"
         id="path4412" />
      <path
         d="m -1256.9257,150.05681 q 0,-2.71729 1.0596,-4.8877 1.0767,-2.17041 2.9736,-3.34961 1.9141,-1.1792 4.3579,-1.1792 3.7769,0 6.1011,2.61475 2.3413,2.61475 2.3413,6.95557 l 0,0.22216 q 0,2.7002 -1.0425,4.85352 -1.0253,2.13623 -2.9565,3.33252 -1.9141,1.19629 -4.4092,1.19629 -3.7597,0 -6.1011,-2.61475 -2.3242,-2.61474 -2.3242,-6.92138 l 0,-0.22217 z m 3.1787,0.37597 q 0,3.07618 1.4185,4.93897 1.4355,1.86279 3.8281,1.86279 2.4097,0 3.8281,-1.87988 1.4185,-1.89697 1.4185,-5.29785 0,-3.042 -1.4526,-4.92188 -1.4356,-1.89697 -3.8282,-1.89697 -2.3413,0 -3.7768,1.86279 -1.4356,1.8628 -1.4356,5.33203 z"
         style="font-style:normal;font-variant:normal;font-weight:normal;font-stretch:normal;font-size:35.00000381px;line-height:125%;font-family:Roboto;-inkscape-font-specification:Roboto;text-align:center;text-anchor:middle"
         id="path4414" />
      <path
         d="m -1233.1366,140.9821 0.1025,2.32422 q 2.1192,-2.66602 5.5371,-2.66602 5.8619,0 5.9131,6.61377 l 0,12.21924 -3.1616,0 0,-12.23633 q -0.017,-1.99951 -0.9228,-2.95654 -0.8887,-0.95703 -2.7857,-0.95703 -1.5381,0 -2.7002,0.82031 -1.1621,0.82031 -1.8115,2.15332 l 0,13.17627 -3.1616,0 0,-18.49121 2.9907,0 z"
         style="font-style:normal;font-variant:normal;font-weight:normal;font-stretch:normal;font-size:35.00000381px;line-height:125%;font-family:Roboto;-inkscape-font-specification:Roboto;text-align:center;text-anchor:middle"
         id="path4416" />
      <path
         d="m -1212.4921,136.50456 0,4.47754 3.4522,0 0,2.44385 -3.4522,0 0,11.46728 q 0,1.11084 0.4615,1.67481 0.4614,0.54687 1.5722,0.54687 0.5469,0 1.5039,-0.20507 l 0,2.56347 q -1.2475,0.3418 -2.4267,0.3418 -2.1192,0 -3.1958,-1.28174 -1.0767,-1.28174 -1.0767,-3.64014 l 0,-11.46728 -3.3667,0 0,-2.44385 3.3667,0 0,-4.47754 3.1616,0 z"
         style="font-style:normal;font-variant:normal;font-weight:normal;font-stretch:normal;font-size:35.00000381px;line-height:125%;font-family:Roboto;-inkscape-font-specification:Roboto;text-align:center;text-anchor:middle"
         id="path4418" />
      <path
         d="m -1193.9496,159.47331 q -0.2734,-0.54687 -0.4443,-1.94824 -2.2046,2.29004 -5.2637,2.29004 -2.7344,0 -4.4946,-1.53809 -1.7432,-1.55517 -1.7432,-3.93066 0,-2.88819 2.1875,-4.47754 2.2046,-1.60645 6.1865,-1.60645 l 3.0762,0 0,-1.45263 q 0,-1.65772 -0.9912,-2.63184 -0.9912,-0.99121 -2.9224,-0.99121 -1.6919,0 -2.8369,0.85449 -1.145,0.85449 -1.145,2.06787 l -3.1787,0 q 0,-1.38427 0.9741,-2.66601 0.9912,-1.29883 2.666,-2.05078 1.6919,-0.75196 3.7085,-0.75196 3.1958,0 5.0073,1.60645 1.8116,1.58935 1.8799,4.39209 l 0,8.51074 q 0,2.54639 0.6494,4.05029 l 0,0.27344 -3.3154,0 z m -5.2466,-2.40967 q 1.4868,0 2.8198,-0.76904 1.3331,-0.76904 1.9312,-1.99951 l 0,-3.79395 -2.478,0 q -5.8106,0 -5.8106,3.40088 0,1.48682 0.9912,2.32422 0.9912,0.8374 2.5464,0.8374 z"
         style="font-style:normal;font-variant:normal;font-weight:normal;font-stretch:normal;font-size:35.00000381px;line-height:125%;font-family:Roboto;-inkscape-font-specification:Roboto;text-align:center;text-anchor:middle"
         id="path4420" />
      <path
         d="m -1178.8764,157.23454 q 1.6919,0 2.9566,-1.02539 1.2646,-1.02539 1.4014,-2.56347 l 2.9907,0 q -0.085,1.58935 -1.0938,3.0249 -1.0083,1.43554 -2.7002,2.29004 -1.6748,0.85449 -3.5547,0.85449 -3.7768,0 -6.0156,-2.51221 -2.2217,-2.5293 -2.2217,-6.9043 l 0,-0.52978 q 0,-2.7002 0.9913,-4.80225 0.9912,-2.10205 2.8369,-3.26416 1.8628,-1.16211 4.3921,-1.16211 3.1103,0 5.1611,1.8628 2.0679,1.86279 2.2046,4.83642 l -2.9907,0 q -0.1368,-1.79443 -1.3672,-2.93945 -1.2134,-1.16211 -3.0078,-1.16211 -2.4097,0 -3.7427,1.74316 -1.3159,1.72608 -1.3159,5.00733 l 0,0.59814 q 0,3.1958 1.3159,4.92188 1.3159,1.72607 3.7597,1.72607 z"
         style="font-style:normal;font-variant:normal;font-weight:normal;font-stretch:normal;font-size:35.00000381px;line-height:125%;font-family:Roboto;-inkscape-font-specification:Roboto;text-align:center;text-anchor:middle"
         id="path4422" />
      <path
         d="m -1163.6835,136.50456 0,4.47754 3.4522,0 0,2.44385 -3.4522,0 0,11.46728 q 0,1.11084 0.4614,1.67481 0.4615,0.54687 1.5723,0.54687 0.5469,0 1.5039,-0.20507 l 0,2.56347 q -1.2475,0.3418 -2.4267,0.3418 -2.1192,0 -3.1958,-1.28174 -1.0767,-1.28174 -1.0767,-3.64014 l 0,-11.46728 -3.3667,0 0,-2.44385 3.3667,0 0,-4.47754 3.1616,0 z"
         style="font-style:normal;font-variant:normal;font-weight:normal;font-stretch:normal;font-size:35.00000381px;line-height:125%;font-family:Roboto;-inkscape-font-specification:Roboto;text-align:center;text-anchor:middle"
         id="path4424" />
      <path
         d="m -1148.6444,150.0739 q 0,-4.25537 2.0166,-6.83594 2.0166,-2.59766 5.2808,-2.59766 3.247,0 5.144,2.22168 l 0,-9.63867 3.1616,0 0,26.25 -2.9053,0 -0.1538,-1.98242 q -1.8969,2.32422 -5.2807,2.32422 -3.2129,0 -5.2466,-2.63184 -2.0166,-2.63183 -2.0166,-6.87011 l 0,-0.23926 z m 3.1616,0.35888 q 0,3.14454 1.2988,4.92188 1.2989,1.77734 3.5889,1.77734 3.0078,0 4.3921,-2.70019 l 0,-8.49366 q -1.4185,-2.61474 -4.3579,-2.61474 -2.3242,0 -3.6231,1.79443 -1.2988,1.79444 -1.2988,5.31494 z"
         style="font-style:normal;font-variant:normal;font-weight:normal;font-stretch:normal;font-size:35.00000381px;line-height:125%;font-family:Roboto;-inkscape-font-specification:Roboto;text-align:center;text-anchor:middle"
         id="path4426" />
      <path
         d="m -1120.4462,159.81511 q -3.7597,0 -6.1181,-2.46094 -2.3584,-2.47803 -2.3584,-6.61377 l 0,-0.58105 q 0,-2.75147 1.0424,-4.90479 1.0596,-2.17041 2.9395,-3.38379 1.897,-1.23047 4.1016,-1.23047 3.6059,0 5.6054,2.37549 1.9995,2.37549 1.9995,6.80176 l 0,1.31592 -12.5268,0 q 0.068,2.73437 1.5893,4.42627 1.5381,1.6748 3.8965,1.6748 1.6748,0 2.8369,-0.68359 1.1622,-0.6836 2.0337,-1.81152 l 1.9312,1.5039 q -2.3242,3.57178 -6.9727,3.57178 z m -0.393,-16.57715 q -1.9141,0 -3.2129,1.40137 -1.2989,1.38427 -1.6065,3.89648 l 9.2627,0 0,-0.23926 q -0.1367,-2.40966 -1.2988,-3.72558 -1.1621,-1.33301 -3.1445,-1.33301 z"
         style="font-style:normal;font-variant:normal;font-weight:normal;font-stretch:normal;font-size:35.00000381px;line-height:125%;font-family:Roboto;-inkscape-font-specification:Roboto;text-align:center;text-anchor:middle"
         id="path4428" />
      <path
         d="m -1105.3046,136.50456 0,4.47754 3.4522,0 0,2.44385 -3.4522,0 0,11.46728 q 0,1.11084 0.4615,1.67481 0.4614,0.54687 1.5722,0.54687 0.5469,0 1.5039,-0.20507 l 0,2.56347 q -1.2475,0.3418 -2.4267,0.3418 -2.1192,0 -3.1958,-1.28174 -1.0767,-1.28174 -1.0767,-3.64014 l 0,-11.46728 -3.3667,0 0,-2.44385 3.3667,0 0,-4.47754 3.1616,0 z"
         style="font-style:normal;font-variant:normal;font-weight:normal;font-stretch:normal;font-size:35.00000381px;line-height:125%;font-family:Roboto;-inkscape-font-specification:Roboto;text-align:center;text-anchor:middle"
         id="path4430" />
      <path
         d="m -1086.7621,159.47331 q -0.2734,-0.54687 -0.4443,-1.94824 -2.2046,2.29004 -5.2637,2.29004 -2.7344,0 -4.4946,-1.53809 -1.7432,-1.55517 -1.7432,-3.93066 0,-2.88819 2.1875,-4.47754 2.2046,-1.60645 6.1865,-1.60645 l 3.0762,0 0,-1.45263 q 0,-1.65772 -0.9912,-2.63184 -0.9912,-0.99121 -2.9224,-0.99121 -1.6919,0 -2.8369,0.85449 -1.145,0.85449 -1.145,2.06787 l -3.1787,0 q 0,-1.38427 0.9741,-2.66601 0.9912,-1.29883 2.666,-2.05078 1.6919,-0.75196 3.7085,-0.75196 3.1958,0 5.0073,1.60645 1.8116,1.58935 1.8799,4.39209 l 0,8.51074 q 0,2.54639 0.6494,4.05029 l 0,0.27344 -3.3154,0 z m -5.2466,-2.40967 q 1.4868,0 2.8199,-0.76904 1.333,-0.76904 1.9311,-1.99951 l 0,-3.79395 -2.478,0 q -5.8106,0 -5.8106,3.40088 0,1.48682 0.9912,2.32422 0.9913,0.8374 2.5464,0.8374 z"
         style="font-style:normal;font-variant:normal;font-weight:normal;font-stretch:normal;font-size:35.00000381px;line-height:125%;font-family:Roboto;-inkscape-font-specification:Roboto;text-align:center;text-anchor:middle"
         id="path4432" />
      <path
         d="m -1075.6708,159.47331 -3.1616,0 0,-18.49121 3.1616,0 0,18.49121 z m -3.4179,-23.396 q 0,-0.76904 0.4614,-1.29882 0.4785,-0.52979 1.4013,-0.52979 0.9229,0 1.4014,0.52979 0.4785,0.52978 0.4785,1.29882 0,0.76905 -0.4785,1.28174 -0.4785,0.5127 -1.4014,0.5127 -0.9228,0 -1.4013,-0.5127 -0.4614,-0.51269 -0.4614,-1.28174 z"
         style="font-style:normal;font-variant:normal;font-weight:normal;font-stretch:normal;font-size:35.00000381px;line-height:125%;font-family:Roboto;-inkscape-font-specification:Roboto;text-align:center;text-anchor:middle"
         id="path4434" />
      <path
         d="m -1067.1942,159.47331 -3.1616,0 0,-26.25 3.1616,0 0,26.25 z"
         style="font-style:normal;font-variant:normal;font-weight:normal;font-stretch:normal;font-size:35.00000381px;line-height:125%;font-family:Roboto;-inkscape-font-specification:Roboto;text-align:center;text-anchor:middle"
         id="path4436" />
      <path
         d="m -1051.3861,154.56853 q 0,-1.28174 -0.9741,-1.98243 -0.9571,-0.71777 -3.3667,-1.23046 -2.3926,-0.5127 -3.8111,-1.23047 -1.4013,-0.71778 -2.0849,-1.70899 -0.6665,-0.99121 -0.6665,-2.3584 0,-2.27295 1.914,-3.84521 1.9312,-1.57227 4.9219,-1.57227 3.1445,0 5.0928,1.62354 1.9653,1.62353 1.9653,4.15283 l -3.1787,0 q 0,-1.29883 -1.1108,-2.23877 -1.0938,-0.93994 -2.7686,-0.93994 -1.7261,0 -2.7002,0.75195 -0.9741,0.75196 -0.9741,1.96533 0,1.14502 0.9058,1.72608 0.9057,0.58105 3.2641,1.11084 2.3755,0.52978 3.8452,1.26465 1.4698,0.73486 2.1704,1.77734 0.7178,1.02539 0.7178,2.51221 0,2.47803 -1.9824,3.98193 -1.9824,1.48682 -5.1441,1.48682 -2.2216,0 -3.9306,-0.78613 -1.709,-0.78614 -2.6831,-2.1875 -0.9571,-1.41846 -0.9571,-3.05909 l 3.1617,0 q 0.085,1.58936 1.2646,2.5293 1.1963,0.92285 3.1445,0.92285 1.7945,0 2.8711,-0.71777 1.0938,-0.73486 1.0938,-1.94824 z"
         style="font-style:normal;font-variant:normal;font-weight:normal;font-stretch:normal;font-size:35.00000381px;line-height:125%;font-family:Roboto;-inkscape-font-specification:Roboto;text-align:center;text-anchor:middle"
         id="path4438" />
      <path
         d="m -1032.2626,143.22087 q 2.1021,-2.58057 5.4688,-2.58057 5.8618,0 5.9131,6.61377 l 0,12.21924 -3.1616,0 0,-12.23633 q -0.017,-1.99951 -0.9229,-2.95654 -0.8887,-0.95703 -2.7856,-0.95703 -1.5381,0 -2.7002,0.82031 -1.1621,0.82031 -1.8116,2.15332 l 0,13.17627 -3.1616,0 0,-26.25 3.1616,0 0,9.99756 z"
         style="font-style:normal;font-variant:normal;font-weight:normal;font-stretch:normal;font-size:35.00000381px;line-height:125%;font-family:Roboto;-inkscape-font-specification:Roboto;text-align:center;text-anchor:middle"
         id="path4440" />
      <path
         d="m -1008.4735,159.81511 q -3.7598,0 -6.1182,-2.46094 -2.3584,-2.47803 -2.3584,-6.61377 l 0,-0.58105 q 0,-2.75147 1.0425,-4.90479 1.0596,-2.17041 2.9395,-3.38379 1.8969,-1.23047 4.1015,-1.23047 3.606,0 5.6055,2.37549 1.9995,2.37549 1.9995,6.80176 l 0,1.31592 -12.5268,0 q 0.068,2.73437 1.5893,4.42627 1.5381,1.6748 3.8965,1.6748 1.6748,0 2.8369,-0.68359 1.1621,-0.6836 2.0337,-1.81152 l 1.9312,1.5039 q -2.3243,3.57178 -6.9727,3.57178 z m -0.3931,-16.57715 q -1.914,0 -3.2129,1.40137 -1.2988,1.38427 -1.6064,3.89648 l 9.2627,0 0,-0.23926 q -0.1367,-2.40966 -1.2988,-3.72558 -1.1621,-1.33301 -3.1446,-1.33301 z"
         style="font-style:normal;font-variant:normal;font-weight:normal;font-stretch:normal;font-size:35.00000381px;line-height:125%;font-family:Roboto;-inkscape-font-specification:Roboto;text-align:center;text-anchor:middle"
         id="path4442" />
      <path
         d="m -988.68346,143.81901 q -0.71777,-0.11963 -1.55517,-0.11963 -3.11035,0 -4.22119,2.64893 l 0,13.125 -3.16163,0 0,-18.49121 3.07618,0 0.0513,2.13623 q 1.55517,-2.47803 4.40918,-2.47803 0.92285,0 1.40136,0.23926 l 0,2.93945 z"
         style="font-style:normal;font-variant:normal;font-weight:normal;font-stretch:normal;font-size:35.00000381px;line-height:125%;font-family:Roboto;-inkscape-font-specification:Roboto;text-align:center;text-anchor:middle"
         id="path4444" />
      <path
         d="m -978.12193,159.81511 q -3.75977,0 -6.11817,-2.46094 -2.3584,-2.47803 -2.3584,-6.61377 l 0,-0.58105 q 0,-2.75147 1.04248,-4.90479 1.05957,-2.17041 2.93946,-3.38379 1.89697,-1.23047 4.10156,-1.23047 3.60596,0 5.60547,2.37549 1.99951,2.37549 1.99951,6.80176 l 0,1.31592 -12.52686,0 q 0.0684,2.73437 1.58936,4.42627 1.53809,1.6748 3.89649,1.6748 1.6748,0 2.83691,-0.68359 1.16211,-0.6836 2.03369,-1.81152 l 1.93115,1.5039 q -2.32422,3.57178 -6.97265,3.57178 z m -0.39307,-16.57715 q -1.91406,0 -3.21289,1.40137 -1.29883,1.38427 -1.60645,3.89648 l 9.2627,0 0,-0.23926 q -0.13672,-2.40966 -1.29883,-3.72558 -1.16211,-1.33301 -3.14453,-1.33301 z"
         style="font-style:normal;font-variant:normal;font-weight:normal;font-stretch:normal;font-size:35.00000381px;line-height:125%;font-family:Roboto;-inkscape-font-specification:Roboto;text-align:center;text-anchor:middle"
         id="path4446" />
      <path
         d="m -1250.6708,203.22332 0,-16.04737 -2.9224,0 0,-2.44385 2.9224,0 0,-1.89697 q 0,-2.97363 1.5894,-4.59717 1.5893,-1.62353 4.4946,-1.62353 1.0937,0 2.1704,0.29052 l -0.1709,2.56348 q -0.8032,-0.15381 -1.709,-0.15381 -1.5381,0 -2.3755,0.90576 -0.8374,0.88868 -0.8374,2.56348 l 0,1.94824 3.9478,0 0,2.44385 -3.9478,0 0,16.04737 -3.1616,0 z"
         style="font-style:normal;font-variant:normal;font-weight:normal;font-stretch:normal;font-size:35.00000381px;line-height:125%;font-family:Roboto;-inkscape-font-specification:Roboto;text-align:center;text-anchor:middle"
         id="path4448" />
      <path
         d="m -1240.8954,193.80681 q 0,-2.71728 1.0596,-4.88769 1.0766,-2.17041 2.9736,-3.34961 1.9141,-1.1792 4.3579,-1.1792 3.7769,0 6.1011,2.61474 2.3413,2.61475 2.3413,6.95557 l 0,0.22217 q 0,2.70019 -1.0425,4.85351 -1.0254,2.13624 -2.9565,3.33252 -1.9141,1.19629 -4.4092,1.19629 -3.7598,0 -6.1011,-2.61474 -2.3242,-2.61475 -2.3242,-6.92139 l 0,-0.22217 z m 3.1787,0.37598 q 0,3.07617 1.4185,4.93896 1.4355,1.8628 3.8281,1.8628 2.4097,0 3.8281,-1.87989 1.4185,-1.89697 1.4185,-5.29785 0,-3.04199 -1.4527,-4.92187 -1.4355,-1.89698 -3.8281,-1.89698 -2.3413,0 -3.7768,1.8628 -1.4356,1.86279 -1.4356,5.33203 z"
         style="font-style:normal;font-variant:normal;font-weight:normal;font-stretch:normal;font-size:35.00000381px;line-height:125%;font-family:Roboto;-inkscape-font-specification:Roboto;text-align:center;text-anchor:middle"
         id="path4450" />
      <path
         d="m -1217.1063,184.7321 0.1025,2.32422 q 2.1191,-2.66601 5.5371,-2.66601 5.8618,0 5.9131,6.61377 l 0,12.21924 -3.1616,0 0,-12.23633 q -0.017,-1.99951 -0.9229,-2.95655 -0.8886,-0.95703 -2.7856,-0.95703 -1.5381,0 -2.7002,0.82032 -1.1621,0.82031 -1.8115,2.15332 l 0,13.17627 -3.1617,0 0,-18.49122 2.9908,0 z"
         style="font-style:normal;font-variant:normal;font-weight:normal;font-stretch:normal;font-size:35.00000381px;line-height:125%;font-family:Roboto;-inkscape-font-specification:Roboto;text-align:center;text-anchor:middle"
         id="path4452" />
      <path
         d="m -1196.4618,180.25456 0,4.47754 3.4521,0 0,2.44385 -3.4521,0 0,11.46729 q 0,1.11084 0.4614,1.6748 0.4614,0.54688 1.5723,0.54688 0.5469,0 1.5039,-0.20508 l 0,2.56348 q -1.2476,0.34179 -2.4268,0.34179 -2.1191,0 -3.1958,-1.28173 -1.0766,-1.28174 -1.0766,-3.64014 l 0,-11.46729 -3.3667,0 0,-2.44385 3.3667,0 0,-4.47754 3.1616,0 z"
         style="font-style:normal;font-variant:normal;font-weight:normal;font-stretch:normal;font-size:35.00000381px;line-height:125%;font-family:Roboto;-inkscape-font-specification:Roboto;text-align:center;text-anchor:middle"
         id="path4454" />
      <path
         d="m -1171.0321,193.1574 -5.8447,0 0,10.06592 -3.2984,0 0,-24.88282 8.2373,0 q 4.2041,0 6.46,1.91406 2.2729,1.91407 2.2729,5.57129 0,2.32422 -1.2646,4.0503 -1.2476,1.72607 -3.4863,2.58056 l 5.8447,10.56153 0,0.20508 -3.5205,0 -5.4004,-10.06592 z m -5.8447,-2.68311 5.0415,0 q 2.4438,0 3.8794,-1.26465 1.4526,-1.26464 1.4526,-3.38379 0,-2.30712 -1.3843,-3.53759 -1.3672,-1.23047 -3.9648,-1.24756 l -5.0244,0 0,9.43359 z"
         style="font-style:normal;font-variant:normal;font-weight:normal;font-stretch:normal;font-size:35.00000381px;line-height:125%;font-family:Roboto;-inkscape-font-specification:Roboto;text-align:center;text-anchor:middle"
         id="path4456" />
      <path
         d="m -1159.9579,193.80681 q 0,-2.71728 1.0596,-4.88769 1.0766,-2.17041 2.9736,-3.34961 1.9141,-1.1792 4.3579,-1.1792 3.7769,0 6.1011,2.61474 2.3413,2.61475 2.3413,6.95557 l 0,0.22217 q 0,2.70019 -1.0425,4.85351 -1.0254,2.13624 -2.9565,3.33252 -1.9141,1.19629 -4.4092,1.19629 -3.7598,0 -6.1011,-2.61474 -2.3242,-2.61475 -2.3242,-6.92139 l 0,-0.22217 z m 3.1787,0.37598 q 0,3.07617 1.4185,4.93896 1.4355,1.8628 3.8281,1.8628 2.4097,0 3.8281,-1.87989 1.4185,-1.89697 1.4185,-5.29785 0,-3.04199 -1.4527,-4.92187 -1.4355,-1.89698 -3.8281,-1.89698 -2.3413,0 -3.7768,1.8628 -1.4356,1.86279 -1.4356,5.33203 z"
         style="font-style:normal;font-variant:normal;font-weight:normal;font-stretch:normal;font-size:35.00000381px;line-height:125%;font-family:Roboto;-inkscape-font-specification:Roboto;text-align:center;text-anchor:middle"
         id="path4458" />
      <path
         d="m -1123.5053,194.18279 q 0,4.23828 -1.9482,6.81885 -1.9482,2.56347 -5.2295,2.56347 -3.5034,0 -5.4175,-2.47802 l -0.1538,2.13623 -2.9053,0 0,-26.25001 3.1617,0 0,9.79249 q 1.914,-2.37549 5.2807,-2.37549 3.3667,0 5.2808,2.54638 1.9311,2.54639 1.9311,6.97266 l 0,0.27344 z m -3.1616,-0.35889 q 0,-3.22998 -1.2475,-4.99023 -1.2476,-1.76026 -3.5889,-1.76026 -3.1274,0 -4.4946,2.90528 l 0,7.99804 q 1.4526,2.90528 4.5288,2.90528 2.2729,0 3.5376,-1.76026 1.2646,-1.76025 1.2646,-5.29785 z"
         style="font-style:normal;font-variant:normal;font-weight:normal;font-stretch:normal;font-size:35.00000381px;line-height:125%;font-family:Roboto;-inkscape-font-specification:Roboto;text-align:center;text-anchor:middle"
         id="path4460" />
      <path
         d="m -1120.3778,193.80681 q 0,-2.71728 1.0596,-4.88769 1.0766,-2.17041 2.9736,-3.34961 1.9141,-1.1792 4.3579,-1.1792 3.7769,0 6.1011,2.61474 2.3413,2.61475 2.3413,6.95557 l 0,0.22217 q 0,2.70019 -1.0425,4.85351 -1.0254,2.13624 -2.9565,3.33252 -1.9141,1.19629 -4.4092,1.19629 -3.7598,0 -6.1011,-2.61474 -2.3242,-2.61475 -2.3242,-6.92139 l 0,-0.22217 z m 3.1787,0.37598 q 0,3.07617 1.4185,4.93896 1.4355,1.8628 3.8281,1.8628 2.4097,0 3.8281,-1.87989 1.4185,-1.89697 1.4185,-5.29785 0,-3.04199 -1.4527,-4.92187 -1.4355,-1.89698 -3.8281,-1.89698 -2.3413,0 -3.7768,1.8628 -1.4356,1.86279 -1.4356,5.33203 z"
         style="font-style:normal;font-variant:normal;font-weight:normal;font-stretch:normal;font-size:35.00000381px;line-height:125%;font-family:Roboto;-inkscape-font-specification:Roboto;text-align:center;text-anchor:middle"
         id="path4462" />
      <path
         d="m -1095.2899,180.25456 0,4.47754 3.4521,0 0,2.44385 -3.4521,0 0,11.46729 q 0,1.11084 0.4614,1.6748 0.4614,0.54688 1.5723,0.54688 0.5469,0 1.5039,-0.20508 l 0,2.56348 q -1.2476,0.34179 -2.4268,0.34179 -2.1191,0 -3.1958,-1.28173 -1.0766,-1.28174 -1.0766,-3.64014 l 0,-11.46729 -3.3667,0 0,-2.44385 3.3667,0 0,-4.47754 3.1616,0 z"
         style="font-style:normal;font-variant:normal;font-weight:normal;font-stretch:normal;font-size:35.00000381px;line-height:125%;font-family:Roboto;-inkscape-font-specification:Roboto;text-align:center;text-anchor:middle"
         id="path4464" />
      <path
         d="m -1089.3427,193.80681 q 0,-2.71728 1.0596,-4.88769 1.0767,-2.17041 2.9737,-3.34961 1.914,-1.1792 4.3579,-1.1792 3.7768,0 6.101,2.61474 2.3413,2.61475 2.3413,6.95557 l 0,0.22217 q 0,2.70019 -1.0424,4.85351 -1.0254,2.13624 -2.9566,3.33252 -1.914,1.19629 -4.4092,1.19629 -3.7597,0 -6.101,-2.61474 -2.3243,-2.61475 -2.3243,-6.92139 l 0,-0.22217 z m 3.1788,0.37598 q 0,3.07617 1.4184,4.93896 1.4356,1.8628 3.8281,1.8628 2.4097,0 3.8282,-1.87989 1.4184,-1.89697 1.4184,-5.29785 0,-3.04199 -1.4526,-4.92187 -1.4356,-1.89698 -3.8281,-1.89698 -2.3413,0 -3.7769,1.8628 -1.4355,1.86279 -1.4355,5.33203 z"
         style="font-style:normal;font-variant:normal;font-weight:normal;font-stretch:normal;font-size:35.00000381px;line-height:125%;font-family:Roboto;-inkscape-font-specification:Roboto;text-align:center;text-anchor:middle"
         id="path4466" />
      <path
         d="m -1043.8837,203.22332 -16.3037,0 0,-2.27295 8.6133,-9.57032 q 1.9141,-2.17041 2.6318,-3.5205 0.7349,-1.36719 0.7349,-2.81983 0,-1.94824 -1.1792,-3.1958 -1.1792,-1.24756 -3.1445,-1.24756 -2.3584,0 -3.6743,1.3501 -1.2989,1.33301 -1.2989,3.72559 l -3.1616,0 q 0,-3.43506 2.2046,-5.5542 2.2217,-2.11914 5.9302,-2.11914 3.4692,0 5.4858,1.82861 2.0166,1.81152 2.0166,4.83642 0,3.67432 -4.6826,8.75001 l -6.665,7.229 12.4926,0 0,2.58057 z"
         style="font-style:normal;font-variant:normal;font-weight:normal;font-stretch:normal;font-size:35.00000381px;line-height:125%;font-family:Roboto;-inkscape-font-specification:Roboto;text-align:center;text-anchor:middle"
         id="path4468" />
      <path
         d="m -1025.4095,184.83464 q 0,1.8628 -0.9913,3.31543 -0.9741,1.45264 -2.6489,2.27295 1.9483,0.83741 3.0762,2.44385 1.145,1.60645 1.145,3.64014 0,3.22998 -2.1875,5.14404 -2.1704,1.91406 -5.7251,1.91406 -3.5889,0 -5.7593,-1.91406 -2.1533,-1.93115 -2.1533,-5.14404 0,-2.0166 1.0938,-3.64014 1.1108,-1.62353 3.059,-2.46094 -1.6577,-0.82031 -2.6147,-2.27295 -0.957,-1.45263 -0.957,-3.29834 0,-3.14453 2.0166,-4.99023 2.0166,-1.8457 5.3149,-1.8457 3.2813,0 5.2979,1.8457 2.0337,1.8457 2.0337,4.99023 z m -2.5806,11.60401 q 0,-2.08496 -1.333,-3.40088 -1.3159,-1.31592 -3.4522,-1.31592 -2.1362,0 -3.435,1.29883 -1.2818,1.29883 -1.2818,3.41797 0,2.11914 1.2476,3.33252 1.2646,1.21338 3.5034,1.21338 2.2217,0 3.4863,-1.21338 1.2647,-1.23047 1.2647,-3.33252 z m -4.751,-15.84229 q -1.8628,0 -3.0249,1.16211 -1.145,1.14502 -1.145,3.12744 0,1.89698 1.1279,3.07618 1.145,1.1621 3.042,1.1621 1.897,0 3.0249,-1.1621 1.145,-1.1792 1.145,-3.07618 0,-1.89697 -1.1792,-3.09326 -1.1792,-1.19629 -2.9907,-1.19629 z"
         style="font-style:normal;font-variant:normal;font-weight:normal;font-stretch:normal;font-size:35.00000381px;line-height:125%;font-family:Roboto;-inkscape-font-specification:Roboto;text-align:center;text-anchor:middle"
         id="path4470" />
      <path
         d="m -1004.8676,194.18279 q 0,4.22119 -1.9311,6.80176 -1.9312,2.58056 -5.2295,2.58056 -3.3667,0 -5.2978,-2.13623 l 0,8.90381 -3.1617,0 0,-25.60059 2.8882,0 0.1538,2.05079 q 1.9312,-2.39258 5.3662,-2.39258 3.3326,0 5.2637,2.5122 1.9482,2.51221 1.9482,6.98975 l 0,0.29053 z m -3.1616,-0.35889 q 0,-3.12744 -1.333,-4.93896 -1.333,-1.81153 -3.6572,-1.81153 -2.8711,0 -4.3066,2.54639 l 0,8.83545 q 1.4184,2.5293 4.3408,2.5293 2.2729,0 3.6059,-1.79444 1.3501,-1.81152 1.3501,-5.36621 z"
         style="font-style:normal;font-variant:normal;font-weight:normal;font-stretch:normal;font-size:35.00000381px;line-height:125%;font-family:Roboto;-inkscape-font-specification:Roboto;text-align:center;text-anchor:middle"
         id="path4472" />
      <path
         d="m -996.57896,180.25456 0,4.47754 3.45215,0 0,2.44385 -3.45215,0 0,11.46729 q 0,1.11084 0.46142,1.6748 0.46143,0.54688 1.57227,0.54688 0.54687,0 1.50391,-0.20508 l 0,2.56348 q -1.24756,0.34179 -2.42676,0.34179 -2.11914,0 -3.1958,-1.28173 -1.07666,-1.28174 -1.07666,-3.64014 l 0,-11.46729 -3.36672,0 0,-2.44385 3.36672,0 0,-4.47754 3.16162,0 z"
         style="font-style:normal;font-variant:normal;font-weight:normal;font-stretch:normal;font-size:35.00000381px;line-height:125%;font-family:Roboto;-inkscape-font-specification:Roboto;text-align:center;text-anchor:middle"
         id="path4474" />
      <path
         d="m -1315.6977,236.36053 q 0,5.5542 -1.8969,8.25439 -1.897,2.7002 -5.9302,2.7002 -3.9819,0 -5.896,-2.63184 -1.9141,-2.64892 -1.9824,-7.89551 l 0,-4.22119 q 0,-5.48584 1.897,-8.15185 1.8969,-2.66602 5.9472,-2.66602 4.0161,0 5.9131,2.58057 1.897,2.56347 1.9482,7.92968 l 0,4.10157 z m -3.1616,-4.32373 q 0,-4.01612 -1.1279,-5.84473 -1.1279,-1.8457 -3.5718,-1.8457 -2.4267,0 -3.5376,1.82861 -1.1108,1.82861 -1.145,5.62256 l 0,5.05859 q 0,4.03321 1.1621,5.96436 1.1792,1.91406 3.5547,1.91406 2.3413,0 3.4692,-1.81152 1.1451,-1.81153 1.1963,-5.70801 l 0,-5.17822 z"
         style="font-style:normal;font-variant:normal;font-weight:normal;font-stretch:normal;font-size:35.00000381px;line-height:125%;font-family:Roboto;-inkscape-font-specification:Roboto;text-align:center;text-anchor:middle"
         id="path4476" />
      <path
         d="m -1295.6684,237.93279 q 0,4.2212 -1.9311,6.80176 -1.9312,2.58057 -5.2295,2.58057 -3.3667,0 -5.2979,-2.13623 l 0,8.90381 -3.1616,0 0,-25.60059 2.8882,0 0.1538,2.05078 q 1.9312,-2.39258 5.3662,-2.39258 3.3326,0 5.2637,2.51221 1.9482,2.51221 1.9482,6.98975 l 0,0.29052 z m -3.1616,-0.35888 q 0,-3.12744 -1.333,-4.93897 -1.333,-1.81152 -3.6572,-1.81152 -2.8711,0 -4.3067,2.54638 l 0,8.83545 q 1.4185,2.5293 4.3409,2.5293 2.2729,0 3.6059,-1.79443 1.3501,-1.81153 1.3501,-5.36621 z"
         style="font-style:normal;font-variant:normal;font-weight:normal;font-stretch:normal;font-size:35.00000381px;line-height:125%;font-family:Roboto;-inkscape-font-specification:Roboto;text-align:center;text-anchor:middle"
         id="path4478" />
      <path
         d="m -1285.4657,235.2326 4.1015,-6.75049 3.6915,0 -6.0499,9.14307 6.2378,9.34814 -3.6572,0 -4.2724,-6.92139 -4.2725,6.92139 -3.6743,0 6.2378,-9.34814 -6.0498,-9.14307 3.6572,0 4.0503,6.75049 z"
         style="font-style:normal;font-variant:normal;font-weight:normal;font-stretch:normal;font-size:35.00000381px;line-height:125%;font-family:Roboto;-inkscape-font-specification:Roboto;text-align:center;text-anchor:middle"
         id="path4480" />
      <path
         d="m -1262.4628,230.72088 q 2.1021,-2.58057 5.4688,-2.58057 5.8618,0 5.9131,6.61377 l 0,12.21924 -3.1617,0 0,-12.23633 q -0.017,-1.99951 -0.9228,-2.95654 -0.8887,-0.95703 -2.7857,-0.95703 -1.5381,0 -2.7002,0.82031 -1.1621,0.82031 -1.8115,2.15332 l 0,13.17627 -3.1616,0 0,-26.25 3.1616,0 0,9.99756 z"
         style="font-style:normal;font-variant:normal;font-weight:normal;font-stretch:normal;font-size:35.00000381px;line-height:125%;font-family:Roboto;-inkscape-font-specification:Roboto;text-align:center;text-anchor:middle"
         id="path4482" />
      <path
         d="m -1235.5805,242.06854 q 0,-1.28174 -0.9741,-1.98243 -0.957,-0.71777 -3.3667,-1.23046 -2.3926,-0.5127 -3.811,-1.23047 -1.4014,-0.71778 -2.085,-1.70899 -0.6665,-0.99121 -0.6665,-2.3584 0,-2.27295 1.9141,-3.84521 1.9311,-1.57227 4.9219,-1.57227 3.1445,0 5.0927,1.62354 1.9654,1.62353 1.9654,4.15283 l -3.1787,0 q 0,-1.29883 -1.1109,-2.23877 -1.0937,-0.93994 -2.7685,-0.93994 -1.7261,0 -2.7002,0.75195 -0.9742,0.75195 -0.9742,1.96533 0,1.14502 0.9058,1.72608 0.9058,0.58105 3.2642,1.11084 2.3755,0.52978 3.8452,1.26465 1.4697,0.73486 2.1704,1.77734 0.7178,1.02539 0.7178,2.51221 0,2.47803 -1.9825,3.98193 -1.9824,1.48682 -5.144,1.48682 -2.2217,0 -3.9307,-0.78613 -1.709,-0.78614 -2.6831,-2.1875 -0.957,-1.41846 -0.957,-3.05909 l 3.1616,0 q 0.086,1.58936 1.2647,2.5293 1.1963,0.92285 3.1445,0.92285 1.7944,0 2.8711,-0.71777 1.0937,-0.73486 1.0937,-1.94824 z"
         style="font-style:normal;font-variant:normal;font-weight:normal;font-stretch:normal;font-size:35.00000381px;line-height:125%;font-family:Roboto;-inkscape-font-specification:Roboto;text-align:center;text-anchor:middle"
         id="path4484" />
      <path
         d="m -1212.6801,237.93279 q 0,4.2212 -1.9311,6.80176 -1.9312,2.58057 -5.2295,2.58057 -3.3667,0 -5.2979,-2.13623 l 0,8.90381 -3.1616,0 0,-25.60059 2.8882,0 0.1538,2.05078 q 1.9312,-2.39258 5.3662,-2.39258 3.3325,0 5.2637,2.51221 1.9482,2.51221 1.9482,6.98975 l 0,0.29052 z m -3.1616,-0.35888 q 0,-3.12744 -1.333,-4.93897 -1.333,-1.81152 -3.6572,-1.81152 -2.8711,0 -4.3067,2.54638 l 0,8.83545 q 1.4185,2.5293 4.3409,2.5293 2.2729,0 3.6059,-1.79443 1.3501,-1.81153 1.3501,-5.36621 z"
         style="font-style:normal;font-variant:normal;font-weight:normal;font-stretch:normal;font-size:35.00000381px;line-height:125%;font-family:Roboto;-inkscape-font-specification:Roboto;text-align:center;text-anchor:middle"
         id="path4486" />
      <path
         d="m -1197.265,246.97332 q -0.2735,-0.54687 -0.4444,-1.94824 -2.2045,2.29004 -5.2636,2.29004 -2.7344,0 -4.4947,-1.53809 -1.7431,-1.55517 -1.7431,-3.93066 0,-2.88819 2.1875,-4.47754 2.2046,-1.60645 6.1865,-1.60645 l 3.0762,0 0,-1.45263 q 0,-1.65772 -0.9912,-2.63184 -0.9912,-0.99121 -2.9224,-0.99121 -1.6919,0 -2.8369,0.85449 -1.145,0.85449 -1.145,2.06787 l -3.1787,0 q 0,-1.38427 0.9741,-2.66601 0.9912,-1.29883 2.666,-2.05078 1.6919,-0.75196 3.7085,-0.75196 3.1958,0 5.0073,1.60645 1.8115,1.58935 1.8799,4.39209 l 0,8.51074 q 0,2.54639 0.6494,4.05029 l 0,0.27344 -3.3154,0 z m -5.2466,-2.40967 q 1.4868,0 2.8198,-0.76904 1.333,-0.76904 1.9312,-1.99951 l 0,-3.79395 -2.4781,0 q -5.8105,0 -5.8105,3.40088 0,1.48682 0.9912,2.32422 0.9912,0.8374 2.5464,0.8374 z"
         style="font-style:normal;font-variant:normal;font-weight:normal;font-stretch:normal;font-size:35.00000381px;line-height:125%;font-family:Roboto;-inkscape-font-specification:Roboto;text-align:center;text-anchor:middle"
         id="path4488" />
      <path
         d="m -1182.1918,244.73455 q 1.6919,0 2.9566,-1.02539 1.2646,-1.02539 1.4013,-2.56348 l 2.9908,0 q -0.085,1.58936 -1.0938,3.02491 -1.0083,1.43554 -2.7002,2.29004 -1.6748,0.85449 -3.5547,0.85449 -3.7768,0 -6.0156,-2.51221 -2.2217,-2.5293 -2.2217,-6.9043 l 0,-0.52978 q 0,-2.7002 0.9912,-4.80225 0.9912,-2.10205 2.8369,-3.26416 1.8628,-1.16211 4.3921,-1.16211 3.1104,0 5.1612,1.8628 2.0678,1.86279 2.2046,4.83642 l -2.9908,0 q -0.1367,-1.79443 -1.3672,-2.93945 -1.2133,-1.16211 -3.0078,-1.16211 -2.4096,0 -3.7426,1.74316 -1.316,1.72608 -1.316,5.00733 l 0,0.59814 q 0,3.1958 1.316,4.92188 1.3159,1.72607 3.7597,1.72607 z"
         style="font-style:normal;font-variant:normal;font-weight:normal;font-stretch:normal;font-size:35.00000381px;line-height:125%;font-family:Roboto;-inkscape-font-specification:Roboto;text-align:center;text-anchor:middle"
         id="path4490" />
      <path
         d="m -1163.6151,247.31512 q -3.7598,0 -6.1182,-2.46094 -2.3584,-2.47803 -2.3584,-6.61377 l 0,-0.58105 q 0,-2.75147 1.0425,-4.90479 1.0596,-2.17041 2.9395,-3.38379 1.8969,-1.23047 4.1015,-1.23047 3.606,0 5.6055,2.37549 1.9995,2.37549 1.9995,6.80176 l 0,1.31592 -12.5269,0 q 0.068,2.73437 1.5894,4.42627 1.5381,1.6748 3.8965,1.6748 1.6748,0 2.8369,-0.68359 1.1621,-0.6836 2.0337,-1.81153 l 1.9311,1.50391 q -2.3242,3.57178 -6.9726,3.57178 z m -0.3931,-16.57715 q -1.914,0 -3.2129,1.40137 -1.2988,1.38427 -1.6064,3.89648 l 9.2627,0 0,-0.23926 q -0.1367,-2.40967 -1.2989,-3.72558 -1.1621,-1.33301 -3.1445,-1.33301 z"
         style="font-style:normal;font-variant:normal;font-weight:normal;font-stretch:normal;font-size:35.00000381px;line-height:125%;font-family:Roboto;-inkscape-font-specification:Roboto;text-align:center;text-anchor:middle"
         id="path4492" />
      <path
         d="m -1135.0238,233.62615 6.9385,0 0,2.99073 -6.9385,0 0,7.86132 -3.1787,0 0,-7.86132 -6.9385,0 0,-2.99073 6.9385,0 0,-7.26318 3.1787,0 0,7.26318 z"
         style="font-style:normal;font-variant:normal;font-weight:normal;font-stretch:normal;font-size:35.00000381px;line-height:125%;font-family:Roboto;-inkscape-font-specification:Roboto;text-align:center;text-anchor:middle"
         id="path4494" />
      <path
         d="m -1105.5096,246.97332 -3.1788,0 0,-21.07178 -6.3745,2.34131 0,-2.87109 9.0576,-3.40088 0.4957,0 0,25.00244 z"
         style="font-style:normal;font-variant:normal;font-weight:normal;font-stretch:normal;font-size:35.00000381px;line-height:125%;font-family:Roboto;-inkscape-font-specification:Roboto;text-align:center;text-anchor:middle"
         id="path4496" />
      <path
         d="m -1095.8197,245.31561 q 0,-0.82032 0.4785,-1.36719 0.4956,-0.54688 1.4697,-0.54688 0.9742,0 1.4698,0.54688 0.5127,0.54687 0.5127,1.36719 0,0.78613 -0.5127,1.31592 -0.4956,0.52978 -1.4698,0.52978 -0.9741,0 -1.4697,-0.52978 -0.4785,-0.52979 -0.4785,-1.31592 z"
         style="font-style:normal;font-variant:normal;font-weight:normal;font-stretch:normal;font-size:35.00000381px;line-height:125%;font-family:Roboto;-inkscape-font-specification:Roboto;text-align:center;text-anchor:middle"
         id="path4498" />
      <path
         d="m -1070.6805,246.97332 -16.3037,0 0,-2.27295 8.6132,-9.57031 q 1.9141,-2.17041 2.6319,-3.52051 0.7348,-1.36719 0.7348,-2.81982 0,-1.94825 -1.1792,-3.1958 -1.1792,-1.24756 -3.1445,-1.24756 -2.3584,0 -3.6743,1.35009 -1.2988,1.33301 -1.2988,3.72559 l -3.1617,0 q 0,-3.43506 2.2046,-5.5542 2.2217,-2.11914 5.9302,-2.11914 3.4692,0 5.4858,1.82861 2.0166,1.81153 2.0166,4.83643 0,3.67432 -4.6826,8.75 l -6.665,7.22901 12.4927,0 0,2.58056 z"
         style="font-style:normal;font-variant:normal;font-weight:normal;font-stretch:normal;font-size:35.00000381px;line-height:125%;font-family:Roboto;-inkscape-font-specification:Roboto;text-align:center;text-anchor:middle"
         id="path4500" />
      <path
         d="m -1065.8441,234.49773 1.2646,-12.40722 12.7491,0 0,2.92236 -10.066,0 -0.7519,6.78467 q 1.8286,-1.07666 4.1528,-1.07666 3.4009,0 5.4004,2.25586 1.9995,2.23877 1.9995,6.06689 0,3.84522 -2.0849,6.0669 -2.0679,2.20459 -5.7935,2.20459 -3.2983,0 -5.3833,-1.82861 -2.085,-1.82862 -2.3755,-5.0586 l 2.9907,0 q 0.2906,2.13623 1.521,3.22998 1.2305,1.07666 3.2471,1.07666 2.2046,0 3.4522,-1.5039 1.2646,-1.50391 1.2646,-4.15284 0,-2.49511 -1.3672,-3.99902 -1.3501,-1.521 -3.6059,-1.521 -2.0679,0 -3.2471,0.90576 l -0.8374,0.6836 -2.5293,-0.64942 z"
         style="font-style:normal;font-variant:normal;font-weight:normal;font-stretch:normal;font-size:35.00000381px;line-height:125%;font-family:Roboto;-inkscape-font-specification:Roboto;text-align:center;text-anchor:middle"
         id="path4502" />
      <path
         d="m -1041.0809,235.2326 4.1015,-6.75049 3.6914,0 -6.0498,9.14307 6.2378,9.34814 -3.6572,0 -4.2725,-6.92139 -4.2724,6.92139 -3.6743,0 6.2378,-9.34814 -6.0498,-9.14307 3.6572,0 4.0503,6.75049 z"
         style="font-style:normal;font-variant:normal;font-weight:normal;font-stretch:normal;font-size:35.00000381px;line-height:125%;font-family:Roboto;-inkscape-font-specification:Roboto;text-align:center;text-anchor:middle"
         id="path4504" />
      <path
         d="m -1015.1385,242.68377 4.58,-14.20166 3.23,0 -6.6308,18.49121 -2.4097,0 -6.6992,-18.49121 3.23,0 4.6997,14.20166 z"
         style="font-style:normal;font-variant:normal;font-weight:normal;font-stretch:normal;font-size:35.00000381px;line-height:125%;font-family:Roboto;-inkscape-font-specification:Roboto;text-align:center;text-anchor:middle"
         id="path4506" />
      <path
         d="m -993.51989,242.06854 q 0,-1.28174 -0.97412,-1.98243 -0.95703,-0.71777 -3.3667,-1.23046 -2.39259,-0.5127 -3.81099,-1.23047 -1.4014,-0.71778 -2.085,-1.70899 -0.6665,-0.99121 -0.6665,-2.3584 0,-2.27295 1.9141,-3.84521 1.9311,-1.57227 4.92183,-1.57227 3.14453,0 5.09277,1.62354 1.96533,1.62353 1.96533,4.15283 l -3.17871,0 q 0,-1.29883 -1.11084,-2.23877 -1.09375,-0.93994 -2.76855,-0.93994 -1.72608,0 -2.70023,0.75195 -0.9741,0.75195 -0.9741,1.96533 0,1.14502 0.9058,1.72608 0.90574,0.58105 3.26413,1.11084 2.37549,0.52978 3.84522,1.26465 1.46973,0.73486 2.17041,1.77734 0.71777,1.02539 0.71777,2.51221 0,2.47803 -1.98242,3.98193 -1.98242,1.48682 -5.14404,1.48682 -2.22168,0 -3.93067,-0.78613 -1.709,-0.78614 -2.6831,-2.1875 -0.957,-1.41846 -0.957,-3.05909 l 3.1616,0 q 0.085,1.58936 1.2646,2.5293 1.19633,0.92285 3.14457,0.92285 1.79443,0 2.87109,-0.71777 1.09375,-0.73486 1.09375,-1.94824 z"
         style="font-style:normal;font-variant:normal;font-weight:normal;font-stretch:normal;font-size:35.00000381px;line-height:125%;font-family:Roboto;-inkscape-font-specification:Roboto;text-align:center;text-anchor:middle"
         id="path4508" />
      <path
         d="m -970.6195,237.93279 q 0,4.2212 -1.93115,6.80176 -1.93115,2.58057 -5.22949,2.58057 -3.3667,0 -5.29785,-2.13623 l 0,8.90381 -3.16163,0 0,-25.60059 2.88819,0 0.15381,2.05078 q 1.93115,-2.39258 5.36621,-2.39258 3.33252,0 5.26367,2.51221 1.94824,2.51221 1.94824,6.98975 l 0,0.29052 z m -3.16162,-0.35888 q 0,-3.12744 -1.33301,-4.93897 -1.333,-1.81152 -3.65722,-1.81152 -2.8711,0 -4.30664,2.54638 l 0,8.83545 q 1.41845,2.5293 4.34082,2.5293 2.27295,0 3.60595,-1.79443 1.3501,-1.81153 1.3501,-5.36621 z"
         style="font-style:normal;font-variant:normal;font-weight:normal;font-stretch:normal;font-size:35.00000381px;line-height:125%;font-family:Roboto;-inkscape-font-specification:Roboto;text-align:center;text-anchor:middle"
         id="path4510" />
      <path
         d="m -955.20446,246.97332 q -0.27344,-0.54687 -0.44433,-1.94824 -2.20459,2.29004 -5.26368,2.29004 -2.73437,0 -4.49463,-1.53809 -1.74316,-1.55517 -1.74316,-3.93066 0,-2.88819 2.1875,-4.47754 2.20459,-1.60645 6.18652,-1.60645 l 3.07618,0 0,-1.45263 q 0,-1.65772 -0.99122,-2.63184 -0.99121,-0.99121 -2.92236,-0.99121 -1.69189,0 -2.83691,0.85449 -1.14502,0.85449 -1.14502,2.06787 l -3.17871,0 q 0,-1.38427 0.97412,-2.66601 0.99121,-1.29883 2.66601,-2.05078 1.6919,-0.75196 3.7085,-0.75196 3.1958,0 5.00732,1.60645 1.81153,1.58935 1.87989,4.39209 l 0,8.51074 q 0,2.54639 0.64941,4.05029 l 0,0.27344 -3.31543,0 z m -5.24658,-2.40967 q 1.48682,0 2.81982,-0.76904 1.33301,-0.76904 1.93116,-1.99951 l 0,-3.79395 -2.47803,0 q -5.81055,0 -5.81055,3.40088 0,1.48682 0.99121,2.32422 0.99121,0.8374 2.54639,0.8374 z"
         style="font-style:normal;font-variant:normal;font-weight:normal;font-stretch:normal;font-size:35.00000381px;line-height:125%;font-family:Roboto;-inkscape-font-specification:Roboto;text-align:center;text-anchor:middle"
         id="path4512" />
      <path
         d="m -940.13122,244.73455 q 1.6919,0 2.95655,-1.02539 1.26464,-1.02539 1.40136,-2.56348 l 2.99073,0 q -0.0854,1.58936 -1.09375,3.02491 -1.0083,1.43554 -2.7002,2.29004 -1.6748,0.85449 -3.55469,0.85449 -3.77685,0 -6.01562,-2.51221 -2.22168,-2.5293 -2.22168,-6.9043 l 0,-0.52978 q 0,-2.7002 0.99121,-4.80225 0.99121,-2.10205 2.83691,-3.26416 1.8628,-1.16211 4.39209,-1.16211 3.11036,0 5.16114,1.8628 2.06787,1.86279 2.20459,4.83642 l -2.99073,0 q -0.13672,-1.79443 -1.36718,-2.93945 -1.21338,-1.16211 -3.00782,-1.16211 -2.40966,0 -3.74267,1.74316 -1.31592,1.72608 -1.31592,5.00733 l 0,0.59814 q 0,3.1958 1.31592,4.92188 1.31592,1.72607 3.75976,1.72607 z"
         style="font-style:normal;font-variant:normal;font-weight:normal;font-stretch:normal;font-size:35.00000381px;line-height:125%;font-family:Roboto;-inkscape-font-specification:Roboto;text-align:center;text-anchor:middle"
         id="path4514" />
      <path
         d="m -921.55456,247.31512 q -3.75976,0 -6.11816,-2.46094 -2.3584,-2.47803 -2.3584,-6.61377 l 0,-0.58105 q 0,-2.75147 1.04248,-4.90479 1.05957,-2.17041 2.93945,-3.38379 1.89698,-1.23047 4.10157,-1.23047 3.60595,0 5.60547,2.37549 1.99951,2.37549 1.99951,6.80176 l 0,1.31592 -12.52686,0 q 0.0684,2.73437 1.58936,4.42627 1.53808,1.6748 3.89648,1.6748 1.67481,0 2.83692,-0.68359 1.16211,-0.6836 2.03369,-1.81153 l 1.93115,1.50391 q -2.32422,3.57178 -6.97266,3.57178 z m -0.39306,-16.57715 q -1.91407,0 -3.21289,1.40137 -1.29883,1.38427 -1.60645,3.89648 l 9.2627,0 0,-0.23926 q -0.13672,-2.40967 -1.29883,-3.72558 -1.16211,-1.33301 -3.14453,-1.33301 z"
         style="font-style:normal;font-variant:normal;font-weight:normal;font-stretch:normal;font-size:35.00000381px;line-height:125%;font-family:Roboto;-inkscape-font-specification:Roboto;text-align:center;text-anchor:middle"
         id="path4516" />
    </g>
    <flowRoot
       xml:space="preserve"
       id="flowRoot4403"
       style="font-style:normal;font-weight:normal;font-size:40px;line-height:100%;font-family:sans-serif;letter-spacing:0px;word-spacing:0px;fill:#000000;fill-opacity:1;stroke:none;stroke-width:1px;stroke-linecap:butt;stroke-linejoin:miter;stroke-opacity:1"
       transform="translate(-1317.0933,308.96936)"><flowRegion
         id="flowRegion4405"><rect
           id="rect4407"
           width="655"
           height="243.57143"
           x="-63.57143"
           y="-20.924595" /></flowRegion><flowPara
         id="flowPara4409"></flowPara></flowRoot>  </g>
</svg>
