<?xml version="1.0" encoding="UTF-8" standalone="no"?>
<!-- Created with Inkscape (http://www.inkscape.org/) -->

<svg
   xmlns:dc="http://purl.org/dc/elements/1.1/"
   xmlns:cc="http://creativecommons.org/ns#"
   xmlns:rdf="http://www.w3.org/1999/02/22-rdf-syntax-ns#"
   xmlns:svg="http://www.w3.org/2000/svg"
   xmlns="http://www.w3.org/2000/svg"
   xmlns:sodipodi="http://sodipodi.sourceforge.net/DTD/sodipodi-0.dtd"
   xmlns:inkscape="http://www.inkscape.org/namespaces/inkscape"
   width="114.94217mm"
   height="27.095779mm"
   viewBox="0 0 407.27543 96.008666"
   id="svg2"
   version="1.1"
   inkscape:version="0.91 r13725"
   sodipodi:docname="name-title.svg">
  <defs
     id="defs4" />
  <sodipodi:namedview
     id="base"
     pagecolor="#ffffff"
     bordercolor="#666666"
     borderopacity="1.0"
     inkscape:pageopacity="0.0"
     inkscape:pageshadow="2"
     inkscape:zoom="1.4"
     inkscape:cx="23.2757"
     inkscape:cy="66.231596"
     inkscape:document-units="px"
     inkscape:current-layer="layer3"
     showgrid="false"
     fit-margin-top="0"
     fit-margin-left="0"
     fit-margin-right="0"
     fit-margin-bottom="0"
     inkscape:window-width="1920"
     inkscape:window-height="1016"
     inkscape:window-x="0"
     inkscape:window-y="27"
     inkscape:window-maximized="1" />
  <metadata
     id="metadata7">
    <rdf:RDF>
      <cc:Work
         rdf:about="">
        <dc:format>image/svg+xml</dc:format>
        <dc:type
           rdf:resource="http://purl.org/dc/dcmitype/StillImage" />
        <dc:title></dc:title>
      </cc:Work>
    </rdf:RDF>
  </metadata>
  <g
     inkscape:label="SilkS"
     inkscape:groupmode="layer"
     id="layer1"
     transform="translate(876.19978,-175.60793)">
    <path
       transform="translate(-1097.417,62.674706)"
       inkscape:connector-curvature="0"
       id="path5754"
       style="font-style:normal;font-weight:normal;font-size:45.00000381px;line-height:125%;font-family:sans-serif;letter-spacing:0px;word-spacing:0px;fill:#000000;fill-opacity:1;stroke:none;stroke-width:1px;stroke-linecap:butt;stroke-linejoin:miter;stroke-opacity:1"
       d="m 232.59906,194.24218 q -5.42725,-1.56006 -7.91016,-3.82324 -2.46094,-2.28516 -2.46094,-5.625 0,-3.7793 3.01026,-6.24024 3.03223,-2.48291 7.86621,-2.48291 3.2959,0 5.8667,1.27442 2.59277,1.27441 3.99902,3.51562 1.42823,2.24121 1.42823,4.89991 l -4.24073,0 q 0,-2.9004 -1.8457,-4.54834 -1.8457,-1.66993 -5.20752,-1.66993 -3.12012,0 -4.87793,1.38428 -1.73584,1.36231 -1.73584,3.80127 0,1.95557 1.64795,3.31787 1.66992,1.34033 5.64697,2.46094 3.99903,1.12061 6.24024,2.48291 2.26318,1.34033 3.33984,3.14209 1.09863,1.80176 1.09863,4.24072 0,3.88916 -3.03222,6.24024 -3.03223,2.3291 -8.10791,2.3291 -3.2959,0 -6.15235,-1.25244 -2.85644,-1.27442 -4.4165,-3.47168 -1.53809,-2.19727 -1.53809,-4.98779 l 4.24073,0 q 0,2.90039 2.13134,4.59228 2.15332,1.66992 5.73487,1.66992 3.33984,0 5.11963,-1.3623 1.77978,-1.36231 1.77978,-3.71338 0,-2.35108 -1.64795,-3.62549 -1.64795,-1.29639 -5.97656,-2.54883 z" />
    <path
       transform="translate(-1097.417,62.674706)"
       inkscape:connector-curvature="0"
       id="path5756"
       style="font-style:normal;font-variant:normal;font-weight:normal;font-stretch:normal;font-size:medium;line-height:125%;font-family:Roboto;-inkscape-font-specification:Roboto;text-align:center;letter-spacing:0px;word-spacing:0px;text-anchor:middle;fill:#000000;fill-opacity:1;stroke:none;stroke-width:1px;stroke-linecap:butt;stroke-linejoin:miter;stroke-opacity:1"
       d="m 271.35394,195.20166 q 0,4.17968 -1.40625,7.30468 -1.40625,3.10547 -3.98437,4.7461 -2.57813,1.64062 -6.01563,1.64062 -3.35937,0 -5.95703,-1.64062 -2.59765,-1.66016 -4.04297,-4.70703 -1.42578,-3.06641 -1.46484,-7.08985 l 0,-2.05078 q 0,-4.10156 1.42578,-7.24609 1.42578,-3.14453 4.02344,-4.80469 2.61719,-1.67969 5.97656,-1.67969 3.41797,0 6.01563,1.66016 2.61718,1.64062 4.02343,4.78515 1.40625,3.125 1.40625,7.28516 l 0,1.79688 z m -3.73047,-1.83594 q 0,-5.0586 -2.03125,-7.75391 -2.03125,-2.71484 -5.68359,-2.71484 -3.55469,0 -5.60547,2.71484 -2.03125,2.69531 -2.08984,7.5 l 0,2.08985 q 0,4.90234 2.05078,7.71484 2.07031,2.79297 5.68359,2.79297 3.63282,0 5.625,-2.63672 1.99219,-2.65625 2.05078,-7.59766 l 0,-2.10937 z" />
    <path
       transform="translate(-1097.417,62.674706)"
       inkscape:connector-curvature="0"
       id="path5758"
       style="font-style:normal;font-variant:normal;font-weight:normal;font-stretch:normal;font-size:medium;line-height:125%;font-family:Roboto;-inkscape-font-specification:Roboto;text-align:center;letter-spacing:0px;word-spacing:0px;text-anchor:middle;fill:#000000;fill-opacity:1;stroke:none;stroke-width:1px;stroke-linecap:butt;stroke-linejoin:miter;stroke-opacity:1"
       d="m 292.66253,195.94384 -11.93359,0 0,12.5586 -3.75,0 0,-28.4375 17.61719,0 0,3.08593 -13.86719,0 0,9.72657 11.93359,0 0,3.0664 z" />
    <path
       transform="translate(-1097.417,62.674706)"
       inkscape:connector-curvature="0"
       id="path5760"
       style="font-style:normal;font-variant:normal;font-weight:normal;font-stretch:normal;font-size:medium;line-height:125%;font-family:Roboto;-inkscape-font-specification:Roboto;text-align:center;letter-spacing:0px;word-spacing:0px;text-anchor:middle;fill:#000000;fill-opacity:1;stroke:none;stroke-width:1px;stroke-linecap:butt;stroke-linejoin:miter;stroke-opacity:1"
       d="m 319.12738,183.15087 -9.14063,0 0,25.35157 -3.73047,0 0,-25.35157 -9.12109,0 0,-3.08593 21.99219,0 0,3.08593 z" />
    <path
       transform="translate(-1097.417,62.674706)"
       inkscape:connector-curvature="0"
       id="path5762"
       style="font-style:normal;font-variant:normal;font-weight:normal;font-stretch:normal;font-size:medium;line-height:125%;font-family:Roboto;-inkscape-font-specification:Roboto;text-align:center;letter-spacing:0px;word-spacing:0px;text-anchor:middle;fill:#000000;fill-opacity:1;stroke:none;stroke-width:1px;stroke-linecap:butt;stroke-linejoin:miter;stroke-opacity:1"
       d="m 329.8305,199.53759 0.54688,3.75 0.80078,-3.3789 5.625,-19.84375 3.16406,0 5.48828,19.84375 0.78125,3.4375 0.60547,-3.82813 4.41406,-19.45312 3.76954,0 -6.89454,28.4375 -3.41796,0 -5.85938,-20.72266 -0.44922,-2.16797 -0.44922,2.16797 -6.07422,20.72266 -3.41796,0 -6.875,-28.4375 3.75,0 4.49218,19.47265 z" />
    <path
       transform="translate(-1097.417,62.674706)"
       inkscape:connector-curvature="0"
       id="path5764"
       style="font-style:normal;font-variant:normal;font-weight:normal;font-stretch:normal;font-size:medium;line-height:125%;font-family:Roboto;-inkscape-font-specification:Roboto;text-align:center;letter-spacing:0px;word-spacing:0px;text-anchor:middle;fill:#000000;fill-opacity:1;stroke:none;stroke-width:1px;stroke-linecap:butt;stroke-linejoin:miter;stroke-opacity:1"
       d="m 374.01019,201.08056 -11.91406,0 -2.67578,7.42188 -3.86719,0 10.85937,-28.4375 3.28125,0 10.87891,28.4375 -3.84766,0 -2.71484,-7.42188 z m -10.78125,-3.08594 9.66797,0 -4.84375,-13.30078 -4.82422,13.30078 z" />
    <path
       transform="translate(-1097.417,62.674706)"
       inkscape:connector-curvature="0"
       id="path5766"
       style="font-style:normal;font-variant:normal;font-weight:normal;font-stretch:normal;font-size:medium;line-height:125%;font-family:Roboto;-inkscape-font-specification:Roboto;text-align:center;letter-spacing:0px;word-spacing:0px;text-anchor:middle;fill:#000000;fill-opacity:1;stroke:none;stroke-width:1px;stroke-linecap:butt;stroke-linejoin:miter;stroke-opacity:1"
       d="m 394.8305,196.99853 -6.67968,0 0,11.50391 -3.76954,0 0,-28.4375 9.41407,0 q 4.80468,0 7.38281,2.1875 2.59766,2.1875 2.59766,6.36718 0,2.65625 -1.44532,4.62891 -1.42578,1.97266 -3.98437,2.94922 l 6.67969,12.07031 0,0.23438 -4.02344,0 -6.17188,-11.50391 z m -6.67968,-3.06641 5.76171,0 q 2.79297,0 4.4336,-1.44531 1.66015,-1.44531 1.66015,-3.86719 0,-2.63671 -1.58203,-4.04296 -1.5625,-1.40625 -4.53125,-1.42579 l -5.74218,0 0,10.78125 z" />
    <path
       transform="translate(-1097.417,62.674706)"
       inkscape:connector-curvature="0"
       id="path5768"
       style="font-style:normal;font-variant:normal;font-weight:normal;font-stretch:normal;font-size:medium;line-height:125%;font-family:Roboto;-inkscape-font-specification:Roboto;text-align:center;letter-spacing:0px;word-spacing:0px;text-anchor:middle;fill:#000000;fill-opacity:1;stroke:none;stroke-width:1px;stroke-linecap:butt;stroke-linejoin:miter;stroke-opacity:1"
       d="m 425.08441,195.35791 -12.32422,0 0,10.07812 14.31641,0 0,3.06641 -18.06641,0 0,-28.4375 17.87109,0 0,3.08593 -14.12109,0 0,9.14063 12.32422,0 0,3.06641 z" />
    <path
       transform="translate(-1097.417,62.674706)"
       inkscape:connector-curvature="0"
       id="path5770"
       style="font-style:normal;font-weight:normal;font-size:45.00000381px;line-height:125%;font-family:sans-serif;letter-spacing:0px;word-spacing:0px;fill:#000000;fill-opacity:1;stroke:none;stroke-width:1px;stroke-linecap:butt;stroke-linejoin:miter;stroke-opacity:1"
       d="m 460.16254,193.71484 -13.86475,0 0,11.33789 16.10596,0 0,3.44971 -20.32471,0 0,-31.99219 20.10498,0 0,3.47168 -15.88623,0 0,10.2832 13.86475,0 0,3.44971 z" />
    <path
       transform="translate(-1097.417,62.674706)"
       inkscape:connector-curvature="0"
       id="path5772"
       style="font-style:normal;font-variant:normal;font-weight:normal;font-stretch:normal;font-size:medium;line-height:125%;font-family:Roboto;-inkscape-font-specification:Roboto;text-align:center;letter-spacing:0px;word-spacing:0px;text-anchor:middle;fill:#000000;fill-opacity:1;stroke:none;stroke-width:1px;stroke-linecap:butt;stroke-linejoin:miter;stroke-opacity:1"
       d="m 489.09808,208.50244 -3.76953,0 -14.31641,-21.91407 0,21.91407 -3.76953,0 0,-28.4375 3.76953,0 14.35547,22.01172 0,-22.01172 3.73047,0 0,28.4375 z" />
    <path
       transform="translate(-1097.417,62.674706)"
       inkscape:connector-curvature="0"
       id="path5774"
       style="font-style:normal;font-variant:normal;font-weight:normal;font-stretch:normal;font-size:medium;line-height:125%;font-family:Roboto;-inkscape-font-specification:Roboto;text-align:center;letter-spacing:0px;word-spacing:0px;text-anchor:middle;fill:#000000;fill-opacity:1;stroke:none;stroke-width:1px;stroke-linecap:butt;stroke-linejoin:miter;stroke-opacity:1"
       d="m 516.75433,204.77197 q -1.44531,2.07031 -4.04297,3.10547 -2.57812,1.01562 -6.01562,1.01562 -3.47656,0 -6.17188,-1.62109 -2.69531,-1.64063 -4.17968,-4.64844 -1.46485,-3.00781 -1.50391,-6.97266 l 0,-2.48046 q 0,-6.42579 2.98828,-9.96094 3.00781,-3.53516 8.4375,-3.53516 4.45313,0 7.16797,2.28516 2.71484,2.26562 3.32031,6.44531 l -3.75,0 q -1.05469,-5.64453 -6.71875,-5.64453 -3.76953,0 -5.72265,2.65625 -1.9336,2.63672 -1.95313,7.65625 l 0,2.32422 q 0,4.78515 2.1875,7.61719 2.1875,2.8125 5.91797,2.8125 2.10937,0 3.69141,-0.46875 1.58203,-0.46875 2.61718,-1.58204 l 0,-6.38671 -6.58203,0 0,-3.04688 10.3125,0 0,10.42969 z" />
    <path
       transform="translate(-1097.417,62.674706)"
       inkscape:connector-curvature="0"
       id="path5776"
       style="font-style:normal;font-variant:normal;font-weight:normal;font-stretch:normal;font-size:medium;line-height:125%;font-family:Roboto;-inkscape-font-specification:Roboto;text-align:center;letter-spacing:0px;word-spacing:0px;text-anchor:middle;fill:#000000;fill-opacity:1;stroke:none;stroke-width:1px;stroke-linecap:butt;stroke-linejoin:miter;stroke-opacity:1"
       d="m 527.0473,208.50244 -3.75,0 0,-28.4375 3.75,0 0,28.4375 z" />
    <path
       transform="translate(-1097.417,62.674706)"
       inkscape:connector-curvature="0"
       id="path5778"
       style="font-style:normal;font-variant:normal;font-weight:normal;font-stretch:normal;font-size:medium;line-height:125%;font-family:Roboto;-inkscape-font-specification:Roboto;text-align:center;letter-spacing:0px;word-spacing:0px;text-anchor:middle;fill:#000000;fill-opacity:1;stroke:none;stroke-width:1px;stroke-linecap:butt;stroke-linejoin:miter;stroke-opacity:1"
       d="m 555.73871,208.50244 -3.76953,0 -14.31641,-21.91407 0,21.91407 -3.76953,0 0,-28.4375 3.76953,0 14.35547,22.01172 0,-22.01172 3.73047,0 0,28.4375 z" />
    <path
       transform="translate(-1097.417,62.674706)"
       inkscape:connector-curvature="0"
       id="path5780"
       style="font-style:normal;font-variant:normal;font-weight:normal;font-stretch:normal;font-size:medium;line-height:125%;font-family:Roboto;-inkscape-font-specification:Roboto;text-align:center;letter-spacing:0px;word-spacing:0px;text-anchor:middle;fill:#000000;fill-opacity:1;stroke:none;stroke-width:1px;stroke-linecap:butt;stroke-linejoin:miter;stroke-opacity:1"
       d="m 578.47308,195.35791 -12.32422,0 0,10.07812 14.31641,0 0,3.06641 -18.06641,0 0,-28.4375 17.8711,0 0,3.08593 -14.1211,0 0,9.14063 12.32422,0 0,3.06641 z" />
    <path
       transform="translate(-1097.417,62.674706)"
       inkscape:connector-curvature="0"
       id="path5782"
       style="font-style:normal;font-variant:normal;font-weight:normal;font-stretch:normal;font-size:medium;line-height:125%;font-family:Roboto;-inkscape-font-specification:Roboto;text-align:center;letter-spacing:0px;word-spacing:0px;text-anchor:middle;fill:#000000;fill-opacity:1;stroke:none;stroke-width:1px;stroke-linecap:butt;stroke-linejoin:miter;stroke-opacity:1"
       d="m 601.20746,195.35791 -12.32422,0 0,10.07812 14.3164,0 0,3.06641 -18.0664,0 0,-28.4375 17.87109,0 0,3.08593 -14.12109,0 0,9.14063 12.32422,0 0,3.06641 z" />
    <path
       transform="translate(-1097.417,62.674706)"
       inkscape:connector-curvature="0"
       id="path5784"
       style="font-style:normal;font-variant:normal;font-weight:normal;font-stretch:normal;font-size:medium;line-height:125%;font-family:Roboto;-inkscape-font-specification:Roboto;text-align:center;letter-spacing:0px;word-spacing:0px;text-anchor:middle;fill:#000000;fill-opacity:1;stroke:none;stroke-width:1px;stroke-linecap:butt;stroke-linejoin:miter;stroke-opacity:1"
       d="m 618.2973,196.99853 -6.67969,0 0,11.50391 -3.76953,0 0,-28.4375 9.41406,0 q 4.80469,0 7.38282,2.1875 2.59765,2.1875 2.59765,6.36718 0,2.65625 -1.44531,4.62891 -1.42578,1.97266 -3.98437,2.94922 l 6.67968,12.07031 0,0.23438 -4.02343,0 -6.17188,-11.50391 z m -6.67969,-3.06641 5.76172,0 q 2.79297,0 4.4336,-1.44531 1.66015,-1.44531 1.66015,-3.86719 0,-2.63671 -1.58203,-4.04296 -1.5625,-1.40625 -4.53125,-1.42579 l -5.74219,0 0,10.78125 z" />
  </g>
  <g
     inkscape:groupmode="layer"
     id="layer3"
     inkscape:label="Cu"
     transform="translate(-221.21722,-112.93323)">
    <path
       style="font-style:normal;font-weight:normal;font-size:50.00000381px;line-height:125%;font-family:sans-serif;letter-spacing:2.00000024px;word-spacing:0px;fill:#ff0000;fill-opacity:1;stroke:none;stroke-width:1px;stroke-linecap:butt;stroke-linejoin:miter;stroke-opacity:1"
       d="m 295.71484,112.94141 c -10.155,-0.20277 -17.23047,9.97215 -16.55664,19.49609 -1.04901,9.51644 5.08928,20.39958 15.40039,20.9375 9.50925,1.42482 18.22826,-6.63296 18.67969,-16.00977 1.51907,-9.34831 -2.02111,-21.29846 -12.25586,-23.83203 -1.7117,-0.46865 -3.49617,-0.64131 -5.26758,-0.59179 z M 296.67188,123 c 6.52153,1.01718 5.43244,9.776 5.07226,14.57031 0.37541,5.37635 -7.40549,8.35401 -9.85937,3.16407 -1.90141,-5.29802 -2.51688,-12.62527 1.59179,-16.97071 0.92579,-0.64095 2.09048,-0.8266 3.19532,-0.76367 z"
       id="path5736-2"
       inkscape:connector-curvature="0" />
    <path
       style="font-style:normal;font-weight:normal;font-size:45.00000381px;line-height:125%;font-family:sans-serif;letter-spacing:2.00000024px;word-spacing:0px;fill:#ff0000;fill-opacity:1;stroke:none;stroke-width:1px;stroke-linecap:butt;stroke-linejoin:miter;stroke-opacity:1"
       d="m 314.44336,119.41016 c 2.48181,11.18618 4.96328,22.37245 7.44531,33.55859 6.40552,0.77597 12.0863,0.63107 11.60398,-7.35727 1.4819,-11.32205 2.9638,-4.05838 4.4457,3.10406 -1.23135,6.13584 10.98045,6.03141 11.41295,1.71053 2.47254,-11.14988 4.94679,-22.29938 7.41823,-33.44951 -5.84628,-0.0663 -13.07623,-1.80174 -11.95483,6.54176 -1.0668,10.53483 -2.40778,7.27625 -3.85359,-1.25654 1.76528,-6.64635 -9.73106,-7.53224 -10.5661,-2.76423 -1.39218,4.67091 -2.96195,18.26449 -4.0296,6.62994 -0.0392,-7.01782 -2.42898,-11.19785 -9.96893,-9.15093 -2.8038,-0.18938 -2.7098,-0.32456 -1.95312,2.4336 z"
       id="path5738-9"
       inkscape:connector-curvature="0" />
    <path
       style="font-style:normal;font-weight:normal;font-size:45.00000381px;line-height:125%;font-family:sans-serif;letter-spacing:2.00000024px;word-spacing:0px;fill:#ff0000;fill-opacity:1;stroke:none;stroke-width:1px;stroke-linecap:butt;stroke-linejoin:miter;stroke-opacity:1"
       d="m 357.85938,118.97656 c 0,11.33073 0,22.66146 0,33.99219 8.48177,0 16.96354,0 25.44531,0 1.65005,-7.74902 -1.07911,-11.11881 -9,-9.29687 -9.68682,1.90072 -5.7797,-7.85543 2.14648,-4.56836 6.69984,3.39028 6.87446,-11.80399 0.65625,-9.16407 -7.56662,2.75287 -12.91664,-5.06151 -2.65625,-3.625 7.99978,1.9503 10.24873,-1.85023 8.81055,-9.33789 -8.46745,0 -16.9349,0 -25.40234,0 l 0,1 0,1 z"
       id="path5740-0"
       inkscape:connector-curvature="0" />
    <path
       style="font-style:normal;font-weight:normal;font-size:45.00000381px;line-height:125%;font-family:sans-serif;letter-spacing:2.00000024px;word-spacing:0px;fill:#ff0000;fill-opacity:1;stroke:none;stroke-width:1px;stroke-linecap:butt;stroke-linejoin:miter;stroke-opacity:1"
       d="m 385.17188,118.97656 c 0,11.33073 0,22.66146 0,33.99219 6.98832,0.79106 13.09992,0.70539 10.59179,-8 -1.38219,-11.23206 2.1205,-5.06612 5.72564,1.46466 1.83019,6.4572 6.65099,7.58741 12.69819,6.53534 2.31509,-4.01824 0.34697,-12.3197 1,-18 -0.65326,-5.67747 1.31546,-13.97692 -1,-17.99219 -7.75395,-1.56384 -11.51141,0.8688 -9.57031,9 1.49817,11.66055 -3.01779,1.89416 -6.2444,-3.27856 -1.58865,-6.91316 -7.55311,-6.03499 -13.20091,-5.72144 l 0,1 0,1 z"
       id="path5742-5"
       inkscape:connector-curvature="0" />
    <path
       style="font-style:normal;font-weight:normal;font-size:50.00000381px;line-height:125%;font-family:sans-serif;letter-spacing:2.00000024px;word-spacing:0px;fill:#ff0000;fill-opacity:1;stroke:none;stroke-width:1px;stroke-linecap:butt;stroke-linejoin:miter;stroke-opacity:1"
       d="m 433.80664,115.42188 c 0,12.51562 0,25.03125 0,37.54687 6.20237,0.0943 14.08097,1.86482 11.32422,-7 -0.97302,-10.73156 5.17661,-1.30889 7.44963,3.25755 2.08304,6.70359 10.03724,2.67609 15.20467,3.74245 -0.80389,-3.74583 -6.38283,-10.06386 -9.02041,-14.797 -6.19541,-5.19831 -3.28767,-9.97499 1.74414,-14.6533 1.35626,-3.39063 12.78447,-11.62545 3.91103,-10.09657 -6.38185,-0.7987 -12.13296,-0.30877 -14.87831,6.30944 -5.09593,9.16527 -4.74185,2.39431 -4.41075,-4.30944 1.84717,-3.07322 -13.04565,-3.14804 -11.32422,0 z"
       id="path5744-0"
       inkscape:connector-curvature="0" />
    <path
       style="font-style:normal;font-weight:normal;font-size:45.00000381px;line-height:125%;font-family:sans-serif;letter-spacing:2.00000024px;word-spacing:0px;fill:#ff0000;fill-opacity:1;stroke:none;stroke-width:1px;stroke-linecap:butt;stroke-linejoin:miter;stroke-opacity:1"
       d="m 467.64453,118.97656 c 0,11.33073 0,22.66146 0,33.99219 6.98832,0.79106 13.09992,0.70539 10.5918,-8 0,-9.33073 0,-18.66146 0,-27.99219 -2.93994,0.97174 -10.96871,-2.14307 -10.5918,2 z"
       id="path5746-4"
       inkscape:connector-curvature="0" />
    <path
       style="font-style:normal;font-weight:normal;font-size:45.00000381px;line-height:125%;font-family:sans-serif;letter-spacing:2.00000024px;word-spacing:0px;fill:#ff0000;fill-opacity:1;stroke:none;stroke-width:1px;stroke-linecap:butt;stroke-linejoin:miter;stroke-opacity:1"
       d="m 482.32227,118.97656 c 0,11.33073 0,22.66146 0,33.99219 6.98832,0.79106 13.09992,0.70539 10.59179,-8 0.29519,-9.63837 5.81971,3.69 7.47071,6.91211 2.16753,1.68315 12.74461,2.96694 10.62304,-2.15625 -0.86466,-3.88018 -7.04603,-8.97484 -4.86719,-12.14649 7.04361,-5.57493 4.16531,-18.75476 -5.0371,-20.07226 -6.17545,-1.189 -12.53819,-0.21074 -18.78125,-0.5293 l 0,1 0,1 z m 13.8789,7.33789 c 4.93522,-0.7084 3.682,7.40754 -0.97265,5.60352 -4.01294,1.7086 -3.34593,-8.32087 0.97265,-5.60352 z"
       id="path5748-1"
       inkscape:connector-curvature="0" />
    <path
       style="font-style:normal;font-weight:normal;font-size:45.00000381px;line-height:125%;font-family:sans-serif;letter-spacing:2.00000024px;word-spacing:0px;fill:#ff0000;fill-opacity:1;stroke:none;stroke-width:1px;stroke-linecap:butt;stroke-linejoin:miter;stroke-opacity:1"
       d="m 513.0625,118.97656 c 0,11.33073 0,22.66146 0,33.99219 8.26342,-1.00225 19.46891,2.84665 25.75586,-4.59375 3.30257,-4.24764 2.23627,-11.02657 -1.06445,-14.3418 5.33233,-5.70467 1.17753,-15.92173 -6.54883,-16.59179 -5.98313,-1.02228 -12.10709,-0.20577 -18.14258,-0.46485 l 0,1 0,1 z m 13.16016,7.33789 c 4.04672,-1.40005 4.38796,5.11789 0.27343,4.06446 -3.90046,1.99797 -4.37002,-6.02381 -0.27343,-4.06446 z m 1.42578,12.72266 c 4.37006,-0.41205 2.56966,6.51457 -1.40235,4.63477 -4.67622,1.34118 -3.38197,-7.26027 1.40235,-4.63477 z"
       id="path5750-7"
       inkscape:connector-curvature="0" />
    <path
       style="font-style:normal;font-weight:normal;font-size:45.00000381px;line-height:125%;font-family:sans-serif;letter-spacing:2.00000024px;word-spacing:0px;fill:#ff0000;fill-opacity:1;stroke:none;stroke-width:1px;stroke-linecap:butt;stroke-linejoin:miter;stroke-opacity:1"
       d="m 539.98242,119.89258 c 3.71112,9.2508 11.97824,17.39713 10.28125,27.95898 -3.37583,7.18714 10.05313,6.54346 10.70117,3.11719 -0.28027,-6.44033 -0.5668,-12.88217 3.66292,-18.22936 2.70613,-5.25427 5.41203,-10.50865 8.11833,-15.76283 -4.73293,0.96237 -12.52861,-2.86286 -13.56039,3.88577 -2.59437,9.79753 -5.17352,6.48344 -7.74743,-1.34347 -0.91449,-4.72677 -13.5526,-0.75395 -12.4999,-1.65329 0.34802,0.67567 0.69603,1.35134 1.04405,2.02701 z"
       id="path5752-9"
       inkscape:connector-curvature="0" />
  </g>
  <g
     inkscape:groupmode="layer"
     id="layer2"
     inkscape:label="Mask"
     transform="translate(-221.21722,-112.93323)">
    <path
       inkscape:connector-curvature="0"
       id="path5736"
       style="font-style:normal;font-weight:normal;font-size:50.00000381px;line-height:125%;font-family:sans-serif;letter-spacing:2.00000024px;word-spacing:0px;fill:#00ff00;fill-opacity:1;stroke:none;stroke-width:1px;stroke-linecap:butt;stroke-linejoin:miter;stroke-opacity:1"
       d="m 311.43108,134.00041 q 0,5.24902 -1.85547,9.2041 -1.85547,3.95508 -5.32226,6.10352 -3.44239,2.14845 -7.91016,2.14845 -4.41895,0 -7.88574,-2.12404 -3.4668,-2.12402 -5.3711,-6.05468 -1.90429,-3.95508 -1.92871,-9.08204 l 0,-1.75781 q 0,-5.24902 1.87988,-9.22852 1.9043,-4.0039 5.34668,-6.12793 3.4668,-2.14843 7.91016,-2.14843 4.44336,0 7.88574,2.14843 3.4668,2.12403 5.34668,6.12793 1.9043,3.9795 1.9043,9.20411 l 0,1.58691 z m -7.42187,-1.61133 q 0,-5.59082 -2.00196,-8.49609 -2.00195,-2.90528 -5.71289,-2.90528 -3.68652,0 -5.68848,2.88086 -2.00195,2.85645 -2.02636,8.39844 l 0,1.7334 q 0,5.44434 2.00195,8.44727 2.00195,3.00293 5.76172,3.00293 3.68652,0 5.66406,-2.88086 1.97754,-2.90528 2.00196,-8.44727 l 0,-1.7334 z" />
    <path
       inkscape:connector-curvature="0"
       id="path5738"
       style="font-style:normal;font-weight:normal;font-size:45.00000381px;line-height:125%;font-family:sans-serif;letter-spacing:2.00000024px;word-spacing:0px;fill:#00ff00;fill-opacity:1;stroke:none;stroke-width:1px;stroke-linecap:butt;stroke-linejoin:miter;stroke-opacity:1"
       d="m 343.40179,141.73967 4.30664,-22.76367 6.56982,0 -7.09716,31.99219 -6.63575,0 -5.20752,-21.40137 -5.20752,21.40137 -6.63574,0 -7.09717,-31.99219 6.56983,0 4.32861,22.71972 5.27344,-22.71972 5.58105,0 5.25147,22.76367 z" />
    <path
       inkscape:connector-curvature="0"
       id="path5740"
       style="font-style:normal;font-weight:normal;font-size:45.00000381px;line-height:125%;font-family:sans-serif;letter-spacing:2.00000024px;word-spacing:0px;fill:#00ff00;fill-opacity:1;stroke:none;stroke-width:1px;stroke-linecap:butt;stroke-linejoin:miter;stroke-opacity:1"
       d="m 379.10785,137.10344 -12.65625,0 0,8.56933 14.85352,0 0,5.29542 -21.44532,0 0,-31.99219 21.40138,0 0,5.33935 -14.80958,0 0,7.62451 12.65625,0 0,5.16358 z" />
    <path
       inkscape:connector-curvature="0"
       id="path5742"
       style="font-style:normal;font-weight:normal;font-size:45.00000381px;line-height:125%;font-family:sans-serif;letter-spacing:2.00000024px;word-spacing:0px;fill:#00ff00;fill-opacity:1;stroke:none;stroke-width:1px;stroke-linecap:butt;stroke-linejoin:miter;stroke-opacity:1"
       d="m 413.18794,150.96819 -6.5918,0 -12.83203,-21.04981 0,21.04981 -6.5918,0 0,-31.99219 6.5918,0 12.854,21.09375 0,-21.09375 6.56983,0 0,31.99219 z" />
    <path
       inkscape:connector-curvature="0"
       id="path5744"
       style="font-style:normal;font-weight:normal;font-size:50.00000381px;line-height:125%;font-family:sans-serif;letter-spacing:2.00000024px;word-spacing:0px;fill:#00ff00;fill-opacity:1;stroke:none;stroke-width:1px;stroke-linecap:butt;stroke-linejoin:miter;stroke-opacity:1"
       d="m 446.93892,136.71037 -3.8086,4.10156 0,10.15626 -7.32422,0 0,-35.54688 7.32422,0 0,16.11328 3.22266,-4.41895 9.05762,-11.69433 9.00879,0 -12.62207,15.7959 12.98828,19.75098 -8.71582,0 -9.13086,-14.25782 z" />
    <path
       inkscape:connector-curvature="0"
       id="path5746"
       style="font-style:normal;font-weight:normal;font-size:45.00000381px;line-height:125%;font-family:sans-serif;letter-spacing:2.00000024px;word-spacing:0px;fill:#00ff00;fill-opacity:1;stroke:none;stroke-width:1px;stroke-linecap:butt;stroke-linejoin:miter;stroke-opacity:1"
       d="m 476.23628,150.96819 -6.5918,0 0,-31.99219 6.5918,0 0,31.99219 z" />
    <path
       inkscape:connector-curvature="0"
       id="path5748"
       style="font-style:normal;font-weight:normal;font-size:45.00000381px;line-height:125%;font-family:sans-serif;letter-spacing:2.00000024px;word-spacing:0px;fill:#00ff00;fill-opacity:1;stroke:none;stroke-width:1px;stroke-linecap:butt;stroke-linejoin:miter;stroke-opacity:1"
       d="m 496.16597,139.25676 -5.25147,0 0,11.71143 -6.59179,0 0,-31.99219 11.8872,0 q 5.66895,0 8.74512,2.52685 3.07617,2.52686 3.07617,7.14111 0,3.27393 -1.42822,5.4712 -1.40625,2.17529 -4.28467,3.47168 l 6.92139,13.07373 0,0.30762 -7.0752,0 -5.99853,-11.71143 z m -5.25147,-5.33936 5.31739,0 q 2.48291,0 3.84521,-1.25244 1.36231,-1.27441 1.36231,-3.49365 0,-2.26319 -1.29639,-3.55957 -1.27441,-1.29639 -3.93311,-1.29639 l -5.29541,0 0,9.60205 z" />
    <path
       inkscape:connector-curvature="0"
       id="path5750"
       style="font-style:normal;font-weight:normal;font-size:45.00000381px;line-height:125%;font-family:sans-serif;letter-spacing:2.00000024px;word-spacing:0px;fill:#00ff00;fill-opacity:1;stroke:none;stroke-width:1px;stroke-linecap:butt;stroke-linejoin:miter;stroke-opacity:1"
       d="m 515.06294,150.96819 0,-31.99219 11.20606,0 q 5.82275,0 8.83301,2.24121 3.01026,2.21923 3.01026,6.52588 0,2.35107 -1.2085,4.15283 -1.20849,1.77978 -3.36181,2.61474 2.46093,0.61524 3.86718,2.48291 1.42823,1.86768 1.42823,4.57032 0,4.61426 -2.94434,6.9873 -2.94434,2.37305 -8.39357,2.417 l -12.43652,0 z m 6.5918,-13.93067 0,8.63525 5.64697,0 q 2.3291,0 3.62549,-1.09863 1.31836,-1.1206 1.31836,-3.07617 0,-4.39453 -4.54834,-4.46045 l -6.04248,0 z m 0,-4.6582 4.87793,0 q 4.98779,-0.0879 4.98779,-3.97705 0,-2.1753 -1.27441,-3.12012 -1.25244,-0.9668 -3.97705,-0.9668 l -4.61426,0 0,8.06397 z" />
    <path
       inkscape:connector-curvature="0"
       id="path5752"
       style="font-style:normal;font-weight:normal;font-size:45.00000381px;line-height:125%;font-family:sans-serif;letter-spacing:2.00000024px;word-spacing:0px;fill:#00ff00;fill-opacity:1;stroke:none;stroke-width:1px;stroke-linecap:butt;stroke-linejoin:miter;stroke-opacity:1"
       d="m 555.60301,133.39006 6.65771,-14.41406 7.20703,0 -10.50293,20.39062 0,11.60157 -6.70166,0 0,-11.60157 -10.50293,-20.39062 7.22901,0 6.61377,14.41406 z" />
  </g>
</svg>
