<?xml version="1.0" encoding="UTF-8" standalone="no"?>
<!-- Created with Inkscape (http://www.inkscape.org/) -->

<svg
   xmlns:dc="http://purl.org/dc/elements/1.1/"
   xmlns:cc="http://creativecommons.org/ns#"
   xmlns:rdf="http://www.w3.org/1999/02/22-rdf-syntax-ns#"
   xmlns:svg="http://www.w3.org/2000/svg"
   xmlns="http://www.w3.org/2000/svg"
   xmlns:sodipodi="http://sodipodi.sourceforge.net/DTD/sodipodi-0.dtd"
   xmlns:inkscape="http://www.inkscape.org/namespaces/inkscape"
   width="92.575226mm"
   height="34.109203mm"
   viewBox="0 0 328.02245 120.85939"
   id="svg4326"
   version="1.1"
   inkscape:version="0.91 r13725"
   sodipodi:docname="subtitle.svg">
  <defs
     id="defs4328" />
  <sodipodi:namedview
     id="base"
     pagecolor="#ffffff"
     bordercolor="#666666"
     borderopacity="1.0"
     inkscape:pageopacity="0.0"
     inkscape:pageshadow="2"
     inkscape:zoom="1.4"
     inkscape:cx="199.01417"
     inkscape:cy="142.85135"
     inkscape:document-units="px"
     inkscape:current-layer="layer1"
     showgrid="false"
     fit-margin-top="0"
     fit-margin-left="0"
     fit-margin-right="0"
     fit-margin-bottom="0"
     inkscape:window-width="1920"
     inkscape:window-height="1016"
     inkscape:window-x="0"
     inkscape:window-y="27"
     inkscape:window-maximized="1" />
  <metadata
     id="metadata4331">
    <rdf:RDF>
      <cc:Work
         rdf:about="">
        <dc:format>image/svg+xml</dc:format>
        <dc:type
           rdf:resource="http://purl.org/dc/dcmitype/StillImage" />
        <dc:title></dc:title>
      </cc:Work>
    </rdf:RDF>
  </metadata>
  <g
     inkscape:label="SilkS"
     inkscape:groupmode="layer"
     id="layer1"
     transform="translate(1434.8814,-176.07873)">
    <g
       style="font-style:normal;font-weight:normal;font-size:40px;line-height:125%;font-family:sans-serif;letter-spacing:0px;word-spacing:0px;fill:#000000;fill-opacity:1;stroke:none;stroke-width:1px;stroke-linecap:butt;stroke-linejoin:miter;stroke-opacity:1"
       id="text9810">
      <path
         d="m -1397.3862,190.82727 -10.7837,0 0,8.81836 12.5268,0 0,2.68311 -15.8081,0 0,-24.88282 15.6372,0 0,2.7002 -12.3559,0 0,7.99804 10.7837,0 0,2.68311 z"
         style="font-style:normal;font-variant:normal;font-weight:normal;font-stretch:normal;font-size:35.00000381px;line-height:125%;font-family:Roboto;-inkscape-font-specification:Roboto;text-align:center;text-anchor:middle"
         id="path9819" />
      <path
         d="m -1388.6192,202.32874 -3.1616,0 0,-26.25001 3.1616,0 0,26.25001 z"
         style="font-style:normal;font-variant:normal;font-weight:normal;font-stretch:normal;font-size:35.00000381px;line-height:125%;font-family:Roboto;-inkscape-font-specification:Roboto;text-align:center;text-anchor:middle"
         id="path9821" />
      <path
         d="m -1375.9043,202.67053 q -3.7598,0 -6.1182,-2.46094 -2.3584,-2.47802 -2.3584,-6.61377 l 0,-0.58105 q 0,-2.75147 1.0425,-4.90479 1.0596,-2.17041 2.9395,-3.38379 1.8969,-1.23046 4.1015,-1.23046 3.606,0 5.6055,2.37548 1.9995,2.37549 1.9995,6.80176 l 0,1.31592 -12.5268,0 q 0.068,2.73438 1.5893,4.42627 1.5381,1.67481 3.8965,1.67481 1.6748,0 2.8369,-0.6836 1.1621,-0.68359 2.0337,-1.81152 l 1.9311,1.5039 q -2.3242,3.57178 -6.9726,3.57178 z m -0.3931,-16.57715 q -1.914,0 -3.2129,1.40137 -1.2988,1.38428 -1.6064,3.89648 l 9.2627,0 0,-0.23925 q -0.1367,-2.40967 -1.2988,-3.72559 -1.1622,-1.33301 -3.1446,-1.33301 z"
         style="font-style:normal;font-variant:normal;font-weight:normal;font-stretch:normal;font-size:35.00000381px;line-height:125%;font-family:Roboto;-inkscape-font-specification:Roboto;text-align:center;text-anchor:middle"
         id="path9823" />
      <path
         d="m -1357.6353,200.08997 q 1.6919,0 2.9566,-1.0254 1.2646,-1.02539 1.4013,-2.56347 l 2.9908,0 q -0.086,1.58935 -1.0938,3.0249 -1.0083,1.43555 -2.7002,2.29004 -1.6748,0.85449 -3.5547,0.85449 -3.7768,0 -6.0156,-2.51221 -2.2217,-2.52929 -2.2217,-6.90429 l 0,-0.52979 q 0,-2.70019 0.9912,-4.80224 0.9913,-2.10206 2.837,-3.26417 1.8627,-1.1621 4.392,-1.1621 3.1104,0 5.1612,1.86279 2.0679,1.86279 2.2046,4.83642 l -2.9908,0 q -0.1367,-1.79443 -1.3671,-2.93945 -1.2134,-1.16211 -3.0079,-1.16211 -2.4096,0 -3.7426,1.74317 -1.3159,1.72607 -1.3159,5.00732 l 0,0.59815 q 0,3.1958 1.3159,4.92187 1.3159,1.72608 3.7597,1.72608 z"
         style="font-style:normal;font-variant:normal;font-weight:normal;font-stretch:normal;font-size:35.00000381px;line-height:125%;font-family:Roboto;-inkscape-font-specification:Roboto;text-align:center;text-anchor:middle"
         id="path9825" />
      <path
         d="m -1342.4424,179.35998 0,4.47754 3.4522,0 0,2.44385 -3.4522,0 0,11.46729 q 0,1.11084 0.4614,1.6748 0.4615,0.54688 1.5723,0.54688 0.5469,0 1.5039,-0.20508 l 0,2.56348 q -1.2476,0.34179 -2.4268,0.34179 -2.1191,0 -3.1958,-1.28174 -1.0766,-1.28173 -1.0766,-3.64013 l 0,-11.46729 -3.3667,0 0,-2.44385 3.3667,0 0,-4.47754 3.1616,0 z"
         style="font-style:normal;font-variant:normal;font-weight:normal;font-stretch:normal;font-size:35.00000381px;line-height:125%;font-family:Roboto;-inkscape-font-specification:Roboto;text-align:center;text-anchor:middle"
         id="path9827" />
      <path
         d="m -1326.3779,186.67444 q -0.7178,-0.11963 -1.5552,-0.11963 -3.1104,0 -4.2212,2.64892 l 0,13.12501 -3.1616,0 0,-18.49122 3.0761,0 0.051,2.13623 q 1.5552,-2.47802 4.4092,-2.47802 0.9228,0 1.4014,0.23925 l 0,2.93946 z"
         style="font-style:normal;font-variant:normal;font-weight:normal;font-stretch:normal;font-size:35.00000381px;line-height:125%;font-family:Roboto;-inkscape-font-specification:Roboto;text-align:center;text-anchor:middle"
         id="path9829" />
      <path
         d="m -1324.669,192.91223 q 0,-2.71729 1.0596,-4.8877 1.0767,-2.17041 2.9737,-3.34961 1.914,-1.17919 4.3579,-1.17919 3.7768,0 6.101,2.61474 2.3413,2.61475 2.3413,6.95557 l 0,0.22217 q 0,2.70019 -1.0424,4.85351 -1.0254,2.13623 -2.9566,3.33252 -1.914,1.19629 -4.4092,1.19629 -3.7597,0 -6.101,-2.61474 -2.3243,-2.61475 -2.3243,-6.92139 l 0,-0.22217 z m 3.1788,0.37598 q 0,3.07617 1.4184,4.93896 1.4356,1.8628 3.8281,1.8628 2.4097,0 3.8282,-1.87989 1.4184,-1.89697 1.4184,-5.29785 0,-3.04199 -1.4526,-4.92188 -1.4356,-1.89697 -3.8281,-1.89697 -2.3413,0 -3.7769,1.8628 -1.4355,1.86279 -1.4355,5.33203 z"
         style="font-style:normal;font-variant:normal;font-weight:normal;font-stretch:normal;font-size:35.00000381px;line-height:125%;font-family:Roboto;-inkscape-font-specification:Roboto;text-align:center;text-anchor:middle"
         id="path9831" />
      <path
         d="m -1300.8799,183.83752 0.1025,2.32422 q 2.1192,-2.66601 5.5372,-2.66601 5.8618,0 5.913,6.61377 l 0,12.21924 -3.1616,0 0,-12.23633 q -0.017,-1.99952 -0.9228,-2.95655 -0.8887,-0.95703 -2.7857,-0.95703 -1.5381,0 -2.7002,0.82031 -1.1621,0.82032 -1.8115,2.15332 l 0,13.17628 -3.1616,0 0,-18.49122 2.9907,0 z"
         style="font-style:normal;font-variant:normal;font-weight:normal;font-stretch:normal;font-size:35.00000381px;line-height:125%;font-family:Roboto;-inkscape-font-specification:Roboto;text-align:center;text-anchor:middle"
         id="path9833" />
      <path
         d="m -1281.0898,202.32874 -3.1617,0 0,-18.49122 3.1617,0 0,18.49122 z m -3.418,-23.396 q 0,-0.76905 0.4614,-1.29883 0.4785,-0.52979 1.4014,-0.52979 0.9228,0 1.4013,0.52979 0.4786,0.52978 0.4786,1.29883 0,0.76904 -0.4786,1.28174 -0.4785,0.51269 -1.4013,0.51269 -0.9229,0 -1.4014,-0.51269 -0.4614,-0.5127 -0.4614,-1.28174 z"
         style="font-style:normal;font-variant:normal;font-weight:normal;font-stretch:normal;font-size:35.00000381px;line-height:125%;font-family:Roboto;-inkscape-font-specification:Roboto;text-align:center;text-anchor:middle"
         id="path9835" />
      <path
         d="m -1268.6313,200.08997 q 1.6918,0 2.9565,-1.0254 1.2646,-1.02539 1.4014,-2.56347 l 2.9907,0 q -0.085,1.58935 -1.0938,3.0249 -1.0083,1.43555 -2.7002,2.29004 -1.6748,0.85449 -3.5546,0.85449 -3.7769,0 -6.0157,-2.51221 -2.2217,-2.52929 -2.2217,-6.90429 l 0,-0.52979 q 0,-2.70019 0.9913,-4.80224 0.9912,-2.10206 2.8369,-3.26417 1.8628,-1.1621 4.3921,-1.1621 3.1103,0 5.1611,1.86279 2.0679,1.86279 2.2046,4.83642 l -2.9907,0 q -0.1368,-1.79443 -1.3672,-2.93945 -1.2134,-1.16211 -3.0078,-1.16211 -2.4097,0 -3.7427,1.74317 -1.3159,1.72607 -1.3159,5.00732 l 0,0.59815 q 0,3.1958 1.3159,4.92187 1.3159,1.72608 3.7598,1.72608 z"
         style="font-style:normal;font-variant:normal;font-weight:normal;font-stretch:normal;font-size:35.00000381px;line-height:125%;font-family:Roboto;-inkscape-font-specification:Roboto;text-align:center;text-anchor:middle"
         id="path9837" />
      <path
         d="m -1246.9614,197.42395 q 0,-1.28174 -0.9741,-1.98242 -0.9571,-0.71778 -3.3667,-1.23047 -2.3926,-0.5127 -3.8111,-1.23047 -1.4013,-0.71777 -2.0849,-1.70898 -0.6665,-0.99122 -0.6665,-2.3584 0,-2.27295 1.914,-3.84522 1.9312,-1.57226 4.9219,-1.57226 3.1445,0 5.0928,1.62353 1.9653,1.62354 1.9653,4.15283 l -3.1787,0 q 0,-1.29882 -1.1109,-2.23877 -1.0937,-0.93994 -2.7685,-0.93994 -1.7261,0 -2.7002,0.75196 -0.9741,0.75195 -0.9741,1.96533 0,1.14502 0.9057,1.72607 0.9058,0.58106 3.2642,1.11084 2.3755,0.52979 3.8452,1.26465 1.4697,0.73486 2.1704,1.77734 0.7178,1.0254 0.7178,2.51221 0,2.47803 -1.9824,3.98194 -1.9824,1.48681 -5.1441,1.48681 -2.2216,0 -3.9306,-0.78613 -1.709,-0.78613 -2.6831,-2.1875 -0.9571,-1.41846 -0.9571,-3.05908 l 3.1617,0 q 0.085,1.58935 1.2646,2.52929 1.1963,0.92286 3.1445,0.92286 1.7945,0 2.8711,-0.71778 1.0938,-0.73486 1.0938,-1.94824 z"
         style="font-style:normal;font-variant:normal;font-weight:normal;font-stretch:normal;font-size:35.00000381px;line-height:125%;font-family:Roboto;-inkscape-font-specification:Roboto;text-align:center;text-anchor:middle"
         id="path9839" />
      <path
         d="m -1230.5039,202.32874 0,-24.88282 7.0239,0 q 3.2471,0 5.7422,1.43555 2.4951,1.43554 3.8452,4.08447 1.3672,2.64893 1.3843,6.08399 l 0,1.58935 q 0,3.52051 -1.3672,6.16944 -1.3501,2.64892 -3.8794,4.06738 -2.5122,1.41846 -5.8618,1.45264 l -6.8872,0 z m 3.2812,-22.18262 0,19.49951 3.4522,0 q 3.7939,0 5.896,-2.3584 2.1191,-2.3584 2.1191,-6.71631 l 0,-1.45264 q 0,-4.23828 -1.9995,-6.57959 -1.9824,-2.35839 -5.6396,-2.39257 l -3.8282,0 z"
         style="font-style:normal;font-variant:normal;font-weight:normal;font-stretch:normal;font-size:35.00000381px;line-height:125%;font-family:Roboto;-inkscape-font-specification:Roboto;text-align:center;text-anchor:middle"
         id="path9841" />
      <path
         d="m -1200.3574,202.67053 q -3.7598,0 -6.1182,-2.46094 -2.3584,-2.47802 -2.3584,-6.61377 l 0,-0.58105 q 0,-2.75147 1.0425,-4.90479 1.0596,-2.17041 2.9394,-3.38379 1.897,-1.23046 4.1016,-1.23046 3.606,0 5.6055,2.37548 1.9995,2.37549 1.9995,6.80176 l 0,1.31592 -12.5269,0 q 0.068,2.73438 1.5894,4.42627 1.5381,1.67481 3.8965,1.67481 1.6748,0 2.8369,-0.6836 1.1621,-0.68359 2.0337,-1.81152 l 1.9311,1.5039 q -2.3242,3.57178 -6.9726,3.57178 z m -0.3931,-16.57715 q -1.9141,0 -3.2129,1.40137 -1.2988,1.38428 -1.6064,3.89648 l 9.2627,0 0,-0.23925 q -0.1367,-2.40967 -1.2989,-3.72559 -1.1621,-1.33301 -3.1445,-1.33301 z"
         style="font-style:normal;font-variant:normal;font-weight:normal;font-stretch:normal;font-size:35.00000381px;line-height:125%;font-family:Roboto;-inkscape-font-specification:Roboto;text-align:center;text-anchor:middle"
         id="path9843" />
      <path
         d="m -1178.7388,197.42395 q 0,-1.28174 -0.9741,-1.98242 -0.957,-0.71778 -3.3667,-1.23047 -2.3926,-0.5127 -3.811,-1.23047 -1.4014,-0.71777 -2.085,-1.70898 -0.6665,-0.99122 -0.6665,-2.3584 0,-2.27295 1.9141,-3.84522 1.9311,-1.57226 4.9218,-1.57226 3.1446,0 5.0928,1.62353 1.9654,1.62354 1.9654,4.15283 l -3.1788,0 q 0,-1.29882 -1.1108,-2.23877 -1.0937,-0.93994 -2.7686,-0.93994 -1.726,0 -2.7001,0.75196 -0.9742,0.75195 -0.9742,1.96533 0,1.14502 0.9058,1.72607 0.9058,0.58106 3.2642,1.11084 2.3754,0.52979 3.8452,1.26465 1.4697,0.73486 2.1704,1.77734 0.7178,1.0254 0.7178,2.51221 0,2.47803 -1.9825,3.98194 -1.9824,1.48681 -5.144,1.48681 -2.2217,0 -3.9307,-0.78613 -1.709,-0.78613 -2.6831,-2.1875 -0.957,-1.41846 -0.957,-3.05908 l 3.1616,0 q 0.086,1.58935 1.2647,2.52929 1.1962,0.92286 3.1445,0.92286 1.7944,0 2.8711,-0.71778 1.0937,-0.73486 1.0937,-1.94824 z"
         style="font-style:normal;font-variant:normal;font-weight:normal;font-stretch:normal;font-size:35.00000381px;line-height:125%;font-family:Roboto;-inkscape-font-specification:Roboto;text-align:center;text-anchor:middle"
         id="path9845" />
      <path
         d="m -1168.0234,202.32874 -3.1616,0 0,-18.49122 3.1616,0 0,18.49122 z m -3.418,-23.396 q 0,-0.76905 0.4614,-1.29883 0.4786,-0.52979 1.4014,-0.52979 0.9229,0 1.4014,0.52979 0.4785,0.52978 0.4785,1.29883 0,0.76904 -0.4785,1.28174 -0.4785,0.51269 -1.4014,0.51269 -0.9228,0 -1.4014,-0.51269 -0.4614,-0.5127 -0.4614,-1.28174 z"
         style="font-style:normal;font-variant:normal;font-weight:normal;font-stretch:normal;font-size:35.00000381px;line-height:125%;font-family:Roboto;-inkscape-font-specification:Roboto;text-align:center;text-anchor:middle"
         id="path9847" />
      <path
         d="m -1163.7339,192.92932 q 0,-4.32373 1.9995,-6.87012 1.9996,-2.56347 5.2979,-2.56347 3.3838,0 5.2808,2.39257 l 0.1538,-2.05078 2.8881,0 0,18.04688 q 0,3.58887 -2.1362,5.65674 -2.1191,2.06787 -5.708,2.06787 -1.9995,0 -3.9136,-0.85449 -1.914,-0.85449 -2.9223,-2.34131 l 1.6406,-1.89697 q 2.0337,2.5122 4.9731,2.5122 2.3072,0 3.5889,-1.29883 1.2988,-1.29882 1.2988,-3.65722 l 0,-1.58936 q -1.8969,2.1875 -5.1782,2.1875 -3.2471,0 -5.2637,-2.61474 -1.9995,-2.61475 -1.9995,-7.12647 z m 3.1787,0.35889 q 0,3.12744 1.2818,4.92187 1.2817,1.77735 3.5888,1.77735 2.9908,0 4.3921,-2.71729 l 0,-8.44238 q -1.4526,-2.64893 -4.3579,-2.64893 -2.3071,0 -3.6059,1.79444 -1.2989,1.79443 -1.2989,5.31494 z"
         style="font-style:normal;font-variant:normal;font-weight:normal;font-stretch:normal;font-size:35.00000381px;line-height:125%;font-family:Roboto;-inkscape-font-specification:Roboto;text-align:center;text-anchor:middle"
         id="path9849" />
      <path
         d="m -1140.3721,183.83752 0.1026,2.32422 q 2.1191,-2.66601 5.5371,-2.66601 5.8618,0 5.9131,6.61377 l 0,12.21924 -3.1616,0 0,-12.23633 q -0.017,-1.99952 -0.9229,-2.95655 -0.8887,-0.95703 -2.7856,-0.95703 -1.5381,0 -2.7002,0.82031 -1.1621,0.82032 -1.8116,2.15332 l 0,13.17628 -3.1616,0 0,-18.49122 2.9907,0 z"
         style="font-style:normal;font-variant:normal;font-weight:normal;font-stretch:normal;font-size:35.00000381px;line-height:125%;font-family:Roboto;-inkscape-font-specification:Roboto;text-align:center;text-anchor:middle"
         id="path9851" />
      <path
         d="m -1426.0288,234.98743 q -4.2212,-1.21338 -6.1524,-2.97363 -1.914,-1.77735 -1.914,-4.375 0,-2.93946 2.3413,-4.85352 2.3584,-1.93115 6.1181,-1.93115 2.5635,0 4.563,0.99121 2.0166,0.99121 3.1104,2.73437 1.1108,1.74317 1.1108,3.81104 l -3.2983,0 q 0,-2.25586 -1.4356,-3.5376 -1.4355,-1.29883 -4.0503,-1.29883 -2.4267,0 -3.7939,1.07666 -1.3501,1.05957 -1.3501,2.95655 0,1.52099 1.2817,2.58056 1.2989,1.04248 4.3921,1.91407 3.1104,0.87158 4.8535,1.93115 1.7603,1.04248 2.5977,2.44385 0.8545,1.40136 0.8545,3.29834 0,3.0249 -2.3584,4.85351 -2.3584,1.81153 -6.3062,1.81153 -2.5634,0 -4.7851,-0.97412 -2.2217,-0.99122 -3.4351,-2.7002 -1.1963,-1.70898 -1.1963,-3.87939 l 3.2984,0 q 0,2.25585 1.6577,3.57177 1.6748,1.29883 4.4604,1.29883 2.5977,0 3.982,-1.05957 1.3843,-1.05957 1.3843,-2.88818 0,-1.82862 -1.2818,-2.81983 -1.2817,-1.0083 -4.6484,-1.98242 z"
         style="font-style:normal;font-variant:normal;font-weight:normal;font-stretch:normal;font-size:35.00000381px;line-height:125%;font-family:Roboto;-inkscape-font-specification:Roboto;text-align:center;text-anchor:middle"
         id="path9853" />
      <path
         d="m -1413.9121,236.66224 q 0,-2.71729 1.0595,-4.8877 1.0767,-2.17041 2.9737,-3.34961 1.914,-1.1792 4.3579,-1.1792 3.7768,0 6.1011,2.61475 2.3413,2.61474 2.3413,6.95556 l 0,0.22217 q 0,2.7002 -1.0425,4.85352 -1.0254,2.13623 -2.9566,3.33252 -1.914,1.19629 -4.4091,1.19629 -3.7598,0 -6.1011,-2.61475 -2.3242,-2.61475 -2.3242,-6.92139 l 0,-0.22216 z m 3.1787,0.37597 q 0,3.07617 1.4184,4.93897 1.4356,1.86279 3.8282,1.86279 2.4096,0 3.8281,-1.87988 1.4185,-1.89698 1.4185,-5.29785 0,-3.042 -1.4527,-4.92188 -1.4355,-1.89697 -3.8281,-1.89697 -2.3413,0 -3.7769,1.86279 -1.4355,1.86279 -1.4355,5.33203 z"
         style="font-style:normal;font-variant:normal;font-weight:normal;font-stretch:normal;font-size:35.00000381px;line-height:125%;font-family:Roboto;-inkscape-font-specification:Roboto;text-align:center;text-anchor:middle"
         id="path9855" />
      <path
         d="m -1391.5586,246.07874 0,-16.04736 -2.9224,0 0,-2.44385 2.9224,0 0,-1.89698 q 0,-2.97363 1.5893,-4.59716 1.5894,-1.62354 4.4947,-1.62354 1.0937,0 2.1704,0.29053 l -0.1709,2.56347 q -0.8032,-0.1538 -1.709,-0.1538 -1.5381,0 -2.3755,0.90576 -0.8374,0.88867 -0.8374,2.56347 l 0,1.94825 3.9478,0 0,2.44385 -3.9478,0 0,16.04736 -3.1616,0 z"
         style="font-style:normal;font-variant:normal;font-weight:normal;font-stretch:normal;font-size:35.00000381px;line-height:125%;font-family:Roboto;-inkscape-font-specification:Roboto;text-align:center;text-anchor:middle"
         id="path9857" />
      <path
         d="m -1376.6563,223.10999 0,4.47754 3.4522,0 0,2.44385 -3.4522,0 0,11.46728 q 0,1.11084 0.4615,1.67481 0.4614,0.54687 1.5722,0.54687 0.5469,0 1.5039,-0.20508 l 0,2.56348 q -1.2475,0.3418 -2.4267,0.3418 -2.1192,0 -3.1958,-1.28174 -1.0767,-1.28174 -1.0767,-3.64014 l 0,-11.46728 -3.3667,0 0,-2.44385 3.3667,0 0,-4.47754 3.1616,0 z"
         style="font-style:normal;font-variant:normal;font-weight:normal;font-stretch:normal;font-size:35.00000381px;line-height:125%;font-family:Roboto;-inkscape-font-specification:Roboto;text-align:center;text-anchor:middle"
         id="path9859" />
      <path
         d="m -1353.1577,241.72083 3.5547,-14.1333 3.1616,0 -5.3833,18.49121 -2.5635,0 -4.4946,-14.01367 -4.375,14.01367 -2.5635,0 -5.3662,-18.49121 3.1445,0 3.6402,13.84277 4.3066,-13.84277 2.5464,0 4.3921,14.1333 z"
         style="font-style:normal;font-variant:normal;font-weight:normal;font-stretch:normal;font-size:35.00000381px;line-height:125%;font-family:Roboto;-inkscape-font-specification:Roboto;text-align:center;text-anchor:middle"
         id="path9861" />
      <path
         d="m -1331.7954,246.07874 q -0.2735,-0.54687 -0.4444,-1.94824 -2.2045,2.29004 -5.2636,2.29004 -2.7344,0 -4.4947,-1.53809 -1.7431,-1.55518 -1.7431,-3.93066 0,-2.88819 2.1875,-4.47754 2.2046,-1.60645 6.1865,-1.60645 l 3.0762,0 0,-1.45264 q 0,-1.65771 -0.9912,-2.63183 -0.9912,-0.99121 -2.9224,-0.99121 -1.6919,0 -2.8369,0.85449 -1.145,0.85449 -1.145,2.06787 l -3.1787,0 q 0,-1.38428 0.9741,-2.66602 0.9912,-1.29882 2.666,-2.05078 1.6919,-0.75195 3.7085,-0.75195 3.1958,0 5.0073,1.60645 1.8115,1.58935 1.8799,4.39209 l 0,8.51074 q 0,2.54639 0.6494,4.05029 l 0,0.27344 -3.3154,0 z m -5.2466,-2.40967 q 1.4868,0 2.8198,-0.76904 1.333,-0.76904 1.9312,-1.99951 l 0,-3.79395 -2.4781,0 q -5.8105,0 -5.8105,3.40088 0,1.48682 0.9912,2.32422 0.9912,0.8374 2.5464,0.8374 z"
         style="font-style:normal;font-variant:normal;font-weight:normal;font-stretch:normal;font-size:35.00000381px;line-height:125%;font-family:Roboto;-inkscape-font-specification:Roboto;text-align:center;text-anchor:middle"
         id="path9863" />
      <path
         d="m -1315.2012,230.42444 q -0.7177,-0.11963 -1.5551,-0.11963 -3.1104,0 -4.2212,2.64893 l 0,13.125 -3.1617,0 0,-18.49121 3.0762,0 0.051,2.13623 q 1.5552,-2.47803 4.4092,-2.47803 0.9228,0 1.4013,0.23926 l 0,2.93945 z"
         style="font-style:normal;font-variant:normal;font-weight:normal;font-stretch:normal;font-size:35.00000381px;line-height:125%;font-family:Roboto;-inkscape-font-specification:Roboto;text-align:center;text-anchor:middle"
         id="path9865" />
      <path
         d="m -1304.6397,246.42054 q -3.7597,0 -6.1181,-2.46094 -2.3584,-2.47803 -2.3584,-6.61377 l 0,-0.58106 q 0,-2.75146 1.0425,-4.90478 1.0595,-2.17041 2.9394,-3.38379 1.897,-1.23047 4.1016,-1.23047 3.6059,0 5.6055,2.37549 1.9995,2.37549 1.9995,6.80176 l 0,1.31592 -12.5269,0 q 0.068,2.73437 1.5894,4.42627 1.538,1.6748 3.8964,1.6748 1.6749,0 2.837,-0.68359 1.1621,-0.6836 2.0337,-1.81153 l 1.9311,1.50391 q -2.3242,3.57178 -6.9727,3.57178 z m -0.393,-16.57715 q -1.9141,0 -3.2129,1.40136 -1.2988,1.38428 -1.6065,3.89649 l 9.2627,0 0,-0.23926 q -0.1367,-2.40967 -1.2988,-3.72559 -1.1621,-1.333 -3.1445,-1.333 z"
         style="font-style:normal;font-variant:normal;font-weight:normal;font-stretch:normal;font-size:35.00000381px;line-height:125%;font-family:Roboto;-inkscape-font-specification:Roboto;text-align:center;text-anchor:middle"
         id="path9867" />
      <path
         d="m -1270.5454,234.57727 -10.7837,0 0,8.81836 12.5269,0 0,2.68311 -15.8082,0 0,-24.88282 15.6373,0 0,2.7002 -12.356,0 0,7.99805 10.7837,0 0,2.6831 z"
         style="font-style:normal;font-variant:normal;font-weight:normal;font-stretch:normal;font-size:35.00000381px;line-height:125%;font-family:Roboto;-inkscape-font-specification:Roboto;text-align:center;text-anchor:middle"
         id="path9869" />
      <path
         d="m -1262.2227,227.58753 0.1026,2.32422 q 2.1191,-2.66602 5.5371,-2.66602 5.8618,0 5.9131,6.61377 l 0,12.21924 -3.1616,0 0,-12.23633 q -0.017,-1.99951 -0.9229,-2.95654 -0.8887,-0.95703 -2.7856,-0.95703 -1.5381,0 -2.7002,0.82031 -1.1621,0.82031 -1.8116,2.15332 l 0,13.17627 -3.1616,0 0,-18.49121 2.9907,0 z"
         style="font-style:normal;font-variant:normal;font-weight:normal;font-stretch:normal;font-size:35.00000381px;line-height:125%;font-family:Roboto;-inkscape-font-specification:Roboto;text-align:center;text-anchor:middle"
         id="path9871" />
      <path
         d="m -1246.6196,236.67933 q 0,-4.32374 1.9995,-6.87012 1.9995,-2.56348 5.2978,-2.56348 3.3838,0 5.2808,2.39258 l 0.1538,-2.05078 2.8882,0 0,18.04687 q 0,3.58887 -2.1362,5.65674 -2.1192,2.06787 -5.7081,2.06787 -1.9995,0 -3.9135,-0.85449 -1.9141,-0.85449 -2.9224,-2.34131 l 1.6406,-1.89697 q 2.0337,2.51221 4.9732,2.51221 2.3071,0 3.5888,-1.29883 1.2989,-1.29883 1.2989,-3.65723 l 0,-1.58935 q -1.897,2.1875 -5.1782,2.1875 -3.2471,0 -5.2637,-2.61475 -1.9995,-2.61475 -1.9995,-7.12646 z m 3.1787,0.35888 q 0,3.12744 1.2817,4.92188 1.2818,1.77734 3.5889,1.77734 2.9907,0 4.3921,-2.71728 l 0,-8.44239 q -1.4527,-2.64892 -4.3579,-2.64892 -2.3072,0 -3.606,1.79443 -1.2988,1.79443 -1.2988,5.31494 z"
         style="font-style:normal;font-variant:normal;font-weight:normal;font-stretch:normal;font-size:35.00000381px;line-height:125%;font-family:Roboto;-inkscape-font-specification:Roboto;text-align:center;text-anchor:middle"
         id="path9873" />
      <path
         d="m -1222.8135,246.07874 -3.1616,0 0,-18.49121 3.1616,0 0,18.49121 z m -3.4179,-23.396 q 0,-0.76904 0.4614,-1.29883 0.4785,-0.52978 1.4013,-0.52978 0.9229,0 1.4014,0.52978 0.4785,0.52979 0.4785,1.29883 0,0.76904 -0.4785,1.28174 -0.4785,0.5127 -1.4014,0.5127 -0.9228,0 -1.4013,-0.5127 -0.4614,-0.5127 -0.4614,-1.28174 z"
         style="font-style:normal;font-variant:normal;font-weight:normal;font-stretch:normal;font-size:35.00000381px;line-height:125%;font-family:Roboto;-inkscape-font-specification:Roboto;text-align:center;text-anchor:middle"
         id="path9875" />
      <path
         d="m -1214.7813,227.58753 0.1026,2.32422 q 2.1191,-2.66602 5.5371,-2.66602 5.8618,0 5.9131,6.61377 l 0,12.21924 -3.1616,0 0,-12.23633 q -0.017,-1.99951 -0.9229,-2.95654 -0.8887,-0.95703 -2.7856,-0.95703 -1.5381,0 -2.7002,0.82031 -1.1621,0.82031 -1.8116,2.15332 l 0,13.17627 -3.1616,0 0,-18.49121 2.9907,0 z"
         style="font-style:normal;font-variant:normal;font-weight:normal;font-stretch:normal;font-size:35.00000381px;line-height:125%;font-family:Roboto;-inkscape-font-specification:Roboto;text-align:center;text-anchor:middle"
         id="path9877" />
      <path
         d="m -1190.7529,246.42054 q -3.7598,0 -6.1182,-2.46094 -2.3584,-2.47803 -2.3584,-6.61377 l 0,-0.58106 q 0,-2.75146 1.0425,-4.90478 1.0596,-2.17041 2.9395,-3.38379 1.8969,-1.23047 4.1015,-1.23047 3.606,0 5.6055,2.37549 1.9995,2.37549 1.9995,6.80176 l 0,1.31592 -12.5269,0 q 0.068,2.73437 1.5894,4.42627 1.5381,1.6748 3.8965,1.6748 1.6748,0 2.8369,-0.68359 1.1621,-0.6836 2.0337,-1.81153 l 1.9311,1.50391 q -2.3242,3.57178 -6.9726,3.57178 z m -0.3931,-16.57715 q -1.914,0 -3.2129,1.40136 -1.2988,1.38428 -1.6064,3.89649 l 9.2627,0 0,-0.23926 q -0.1367,-2.40967 -1.2989,-3.72559 -1.1621,-1.333 -3.1445,-1.333 z"
         style="font-style:normal;font-variant:normal;font-weight:normal;font-stretch:normal;font-size:35.00000381px;line-height:125%;font-family:Roboto;-inkscape-font-specification:Roboto;text-align:center;text-anchor:middle"
         id="path9879" />
      <path
         d="m -1172.2275,246.42054 q -3.7598,0 -6.1182,-2.46094 -2.3584,-2.47803 -2.3584,-6.61377 l 0,-0.58106 q 0,-2.75146 1.0425,-4.90478 1.0596,-2.17041 2.9394,-3.38379 1.897,-1.23047 4.1016,-1.23047 3.606,0 5.6055,2.37549 1.9995,2.37549 1.9995,6.80176 l 0,1.31592 -12.5269,0 q 0.068,2.73437 1.5894,4.42627 1.5381,1.6748 3.8965,1.6748 1.6748,0 2.8369,-0.68359 1.1621,-0.6836 2.0337,-1.81153 l 1.9311,1.50391 q -2.3242,3.57178 -6.9726,3.57178 z m -0.3931,-16.57715 q -1.9141,0 -3.2129,1.40136 -1.2988,1.38428 -1.6064,3.89649 l 9.2627,0 0,-0.23926 q -0.1368,-2.40967 -1.2989,-3.72559 -1.1621,-1.333 -3.1445,-1.333 z"
         style="font-style:normal;font-variant:normal;font-weight:normal;font-stretch:normal;font-size:35.00000381px;line-height:125%;font-family:Roboto;-inkscape-font-specification:Roboto;text-align:center;text-anchor:middle"
         id="path9881" />
      <path
         d="m -1152.4375,230.42444 q -0.7178,-0.11963 -1.5552,-0.11963 -3.1103,0 -4.2212,2.64893 l 0,13.125 -3.1616,0 0,-18.49121 3.0762,0 0.051,2.13623 q 1.5551,-2.47803 4.4091,-2.47803 0.9229,0 1.4014,0.23926 l 0,2.93945 z"
         style="font-style:normal;font-variant:normal;font-weight:normal;font-stretch:normal;font-size:35.00000381px;line-height:125%;font-family:Roboto;-inkscape-font-specification:Roboto;text-align:center;text-anchor:middle"
         id="path9883" />
      <path
         d="m -1146.1142,246.07874 -3.1617,0 0,-18.49121 3.1617,0 0,18.49121 z m -3.418,-23.396 q 0,-0.76904 0.4614,-1.29883 0.4785,-0.52978 1.4014,-0.52978 0.9228,0 1.4013,0.52978 0.4786,0.52979 0.4786,1.29883 0,0.76904 -0.4786,1.28174 -0.4785,0.5127 -1.4013,0.5127 -0.9229,0 -1.4014,-0.5127 -0.4614,-0.5127 -0.4614,-1.28174 z"
         style="font-style:normal;font-variant:normal;font-weight:normal;font-stretch:normal;font-size:35.00000381px;line-height:125%;font-family:Roboto;-inkscape-font-specification:Roboto;text-align:center;text-anchor:middle"
         id="path9885" />
      <path
         d="m -1138.082,227.58753 0.1025,2.32422 q 2.1192,-2.66602 5.5371,-2.66602 5.8618,0 5.9131,6.61377 l 0,12.21924 -3.1616,0 0,-12.23633 q -0.017,-1.99951 -0.9229,-2.95654 -0.8886,-0.95703 -2.7856,-0.95703 -1.5381,0 -2.7002,0.82031 -1.1621,0.82031 -1.8115,2.15332 l 0,13.17627 -3.1616,0 0,-18.49121 2.9907,0 z"
         style="font-style:normal;font-variant:normal;font-weight:normal;font-stretch:normal;font-size:35.00000381px;line-height:125%;font-family:Roboto;-inkscape-font-specification:Roboto;text-align:center;text-anchor:middle"
         id="path9887" />
      <path
         d="m -1122.479,236.67933 q 0,-4.32374 1.9995,-6.87012 1.9995,-2.56348 5.2979,-2.56348 3.3838,0 5.2807,2.39258 l 0.1538,-2.05078 2.8882,0 0,18.04687 q 0,3.58887 -2.1362,5.65674 -2.1191,2.06787 -5.708,2.06787 -1.9995,0 -3.9136,-0.85449 -1.914,-0.85449 -2.9223,-2.34131 l 1.6406,-1.89697 q 2.0337,2.51221 4.9731,2.51221 2.3071,0 3.5889,-1.29883 1.2988,-1.29883 1.2988,-3.65723 l 0,-1.58935 q -1.897,2.1875 -5.1782,2.1875 -3.2471,0 -5.2637,-2.61475 -1.9995,-2.61475 -1.9995,-7.12646 z m 3.1787,0.35888 q 0,3.12744 1.2818,4.92188 1.2817,1.77734 3.5888,1.77734 2.9907,0 4.3921,-2.71728 l 0,-8.44239 q -1.4526,-2.64892 -4.3579,-2.64892 -2.3071,0 -3.606,1.79443 -1.2988,1.79443 -1.2988,5.31494 z"
         style="font-style:normal;font-variant:normal;font-weight:normal;font-stretch:normal;font-size:35.00000381px;line-height:125%;font-family:Roboto;-inkscape-font-specification:Roboto;text-align:center;text-anchor:middle"
         id="path9889" />
      <path
         d="m -1401.8125,278.19056 q 0,3.65723 -1.2305,6.3916 -1.2305,2.71729 -3.4863,4.15283 -2.2559,1.43555 -5.2637,1.43555 -2.9394,0 -5.2124,-1.43555 -2.2729,-1.45263 -3.5376,-4.11865 -1.2475,-2.6831 -1.2817,-6.20361 l 0,-1.79444 q 0,-3.58886 1.2475,-6.34033 1.2476,-2.75146 3.5205,-4.2041 2.2901,-1.46973 5.2295,-1.46973 2.9908,0 5.2637,1.45264 2.29,1.43555 3.5205,4.18701 1.2305,2.73438 1.2305,6.37451 l 0,1.57227 z m -3.2642,-1.60645 q 0,-4.42627 -1.7773,-6.78466 -1.7774,-2.37549 -4.9732,-2.37549 -3.1103,0 -4.9047,2.37549 -1.7774,2.35839 -1.8287,6.5625 l 0,1.82861 q 0,4.28955 1.7945,6.75049 1.8115,2.44385 4.9731,2.44385 3.1787,0 4.9219,-2.30713 1.7432,-2.32422 1.7944,-6.64795 l 0,-1.84571 z"
         style="font-style:normal;font-variant:normal;font-weight:normal;font-stretch:normal;font-size:35.00000381px;line-height:125%;font-family:Roboto;-inkscape-font-specification:Roboto;text-align:center;text-anchor:middle"
         id="path9891" />
      <path
         d="m -1381.7661,280.78822 q 0,4.22119 -1.9312,6.80176 -1.9311,2.58056 -5.2295,2.58056 -3.3667,0 -5.2978,-2.13623 l 0,8.90381 -3.1616,0 0,-25.60059 2.8881,0 0.1538,2.05078 q 1.9312,-2.39257 5.3663,-2.39257 3.3325,0 5.2636,2.5122 1.9483,2.51221 1.9483,6.98975 l 0,0.29053 z m -3.1616,-0.35889 q 0,-3.12744 -1.3331,-4.93897 -1.333,-1.81152 -3.6572,-1.81152 -2.8711,0 -4.3066,2.54639 l 0,8.83545 q 1.4184,2.5293 4.3408,2.5293 2.2729,0 3.606,-1.79444 1.3501,-1.81152 1.3501,-5.36621 z"
         style="font-style:normal;font-variant:normal;font-weight:normal;font-stretch:normal;font-size:35.00000381px;line-height:125%;font-family:Roboto;-inkscape-font-specification:Roboto;text-align:center;text-anchor:middle"
         id="path9893" />
      <path
         d="m -1370.0938,290.17054 q -3.7597,0 -6.1181,-2.46094 -2.3584,-2.47802 -2.3584,-6.61377 l 0,-0.58105 q 0,-2.75147 1.0425,-4.90479 1.0595,-2.17041 2.9394,-3.38379 1.897,-1.23046 4.1016,-1.23046 3.6059,0 5.6054,2.37548 1.9996,2.37549 1.9996,6.80176 l 0,1.31592 -12.5269,0 q 0.068,2.73438 1.5894,4.42627 1.538,1.67481 3.8964,1.67481 1.6748,0 2.837,-0.6836 1.1621,-0.68359 2.0336,-1.81152 l 1.9312,1.5039 q -2.3242,3.57178 -6.9727,3.57178 z m -0.393,-16.57715 q -1.9141,0 -3.2129,1.40137 -1.2988,1.38428 -1.6065,3.89648 l 9.2627,0 0,-0.23925 q -0.1367,-2.40967 -1.2988,-3.72559 -1.1621,-1.33301 -3.1445,-1.33301 z"
         style="font-style:normal;font-variant:normal;font-weight:normal;font-stretch:normal;font-size:35.00000381px;line-height:125%;font-family:Roboto;-inkscape-font-specification:Roboto;text-align:center;text-anchor:middle"
         id="path9895" />
      <path
         d="m -1356.251,271.33753 0.1026,2.32422 q 2.1191,-2.66601 5.5371,-2.66601 5.8618,0 5.9131,6.61377 l 0,12.21923 -3.1617,0 0,-12.23632 q -0.017,-1.99952 -0.9228,-2.95655 -0.8887,-0.95703 -2.7857,-0.95703 -1.5381,0 -2.7002,0.82031 -1.1621,0.82032 -1.8115,2.15332 l 0,13.17627 -3.1616,0 0,-18.49121 2.9907,0 z"
         style="font-style:normal;font-variant:normal;font-weight:normal;font-stretch:normal;font-size:35.00000381px;line-height:125%;font-family:Roboto;-inkscape-font-specification:Roboto;text-align:center;text-anchor:middle"
         id="path9897" />
      <path
         d="m -1323.3872,278.73744 q -4.2212,-1.21338 -6.1524,-2.97364 -1.914,-1.77734 -1.914,-4.375 0,-2.93945 2.3413,-4.85351 2.3584,-1.93116 6.1182,-1.93116 2.5634,0 4.5629,0.99121 2.0166,0.99121 3.1104,2.73438 1.1108,1.74316 1.1108,3.81103 l -3.2983,0 q 0,-2.25585 -1.4356,-3.53759 -1.4355,-1.29883 -4.0502,-1.29883 -2.4268,0 -3.794,1.07666 -1.3501,1.05957 -1.3501,2.95654 0,1.521 1.2817,2.58057 1.2989,1.04248 4.3921,1.91406 3.1104,0.87158 4.8536,1.93115 1.7602,1.04248 2.5976,2.44385 0.8545,1.40137 0.8545,3.29834 0,3.0249 -2.3584,4.85352 -2.3584,1.81152 -6.3062,1.81152 -2.5634,0 -4.7851,-0.97412 -2.2217,-0.99121 -3.4351,-2.7002 -1.1963,-1.70898 -1.1963,-3.87939 l 3.2984,0 q 0,2.25586 1.6577,3.57178 1.6748,1.29883 4.4604,1.29883 2.5977,0 3.982,-1.05957 1.3843,-1.05957 1.3843,-2.88819 0,-1.82861 -1.2818,-2.81982 -1.2817,-1.0083 -4.6484,-1.98242 z"
         style="font-style:normal;font-variant:normal;font-weight:normal;font-stretch:normal;font-size:35.00000381px;line-height:125%;font-family:Roboto;-inkscape-font-specification:Roboto;text-align:center;text-anchor:middle"
         id="path9899" />
      <path
         d="m -1311.2705,280.41224 q 0,-2.71729 1.0596,-4.8877 1.0766,-2.17041 2.9736,-3.34961 1.914,-1.17919 4.3579,-1.17919 3.7769,0 6.1011,2.61474 2.3413,2.61475 2.3413,6.95557 l 0,0.22217 q 0,2.70019 -1.0425,4.85351 -1.0254,2.13623 -2.9565,3.33252 -1.9141,1.19629 -4.4092,1.19629 -3.7598,0 -6.1011,-2.61474 -2.3242,-2.61475 -2.3242,-6.92139 l 0,-0.22217 z m 3.1787,0.37598 q 0,3.07617 1.4185,4.93896 1.4355,1.8628 3.8281,1.8628 2.4096,0 3.8281,-1.87989 1.4185,-1.89697 1.4185,-5.29785 0,-3.04199 -1.4527,-4.92188 -1.4355,-1.89697 -3.8281,-1.89697 -2.3413,0 -3.7769,1.86279 -1.4355,1.8628 -1.4355,5.33204 z"
         style="font-style:normal;font-variant:normal;font-weight:normal;font-stretch:normal;font-size:35.00000381px;line-height:125%;font-family:Roboto;-inkscape-font-specification:Roboto;text-align:center;text-anchor:middle"
         id="path9901" />
      <path
         d="m -1279.0562,288.00013 q -1.8457,2.17041 -5.4174,2.17041 -2.9566,0 -4.5118,-1.70898 -1.538,-1.72608 -1.5551,-5.09278 l 0,-12.03125 3.1616,0 0,11.9458 q 0,4.20411 3.418,4.20411 3.623,0 4.8193,-2.7002 l 0,-13.44971 3.1616,0 0,18.49121 -3.0078,0 -0.068,-1.82861 z"
         style="font-style:normal;font-variant:normal;font-weight:normal;font-stretch:normal;font-size:35.00000381px;line-height:125%;font-family:Roboto;-inkscape-font-specification:Roboto;text-align:center;text-anchor:middle"
         id="path9903" />
      <path
         d="m -1262.2568,274.17445 q -0.7178,-0.11963 -1.5552,-0.11963 -3.1104,0 -4.2212,2.64892 l 0,13.125 -3.1616,0 0,-18.49121 3.0761,0 0.051,2.13623 q 1.5552,-2.47802 4.4092,-2.47802 0.9228,0 1.4014,0.23925 l 0,2.93946 z"
         style="font-style:normal;font-variant:normal;font-weight:normal;font-stretch:normal;font-size:35.00000381px;line-height:125%;font-family:Roboto;-inkscape-font-specification:Roboto;text-align:center;text-anchor:middle"
         id="path9905" />
      <path
         d="m -1252.2935,287.58998 q 1.6919,0 2.9566,-1.0254 1.2646,-1.02539 1.4014,-2.56347 l 2.9907,0 q -0.085,1.58935 -1.0938,3.0249 -1.0083,1.43555 -2.7002,2.29004 -1.6748,0.85449 -3.5547,0.85449 -3.7768,0 -6.0156,-2.51221 -2.2217,-2.52929 -2.2217,-6.90429 l 0,-0.52979 q 0,-2.70019 0.9912,-4.80224 0.9913,-2.10206 2.837,-3.26417 1.8628,-1.1621 4.3921,-1.1621 3.1103,0 5.1611,1.86279 2.0679,1.86279 2.2046,4.83642 l -2.9907,0 q -0.1368,-1.79443 -1.3672,-2.93945 -1.2134,-1.16211 -3.0078,-1.16211 -2.4097,0 -3.7427,1.74317 -1.3159,1.72607 -1.3159,5.00732 l 0,0.59815 q 0,3.1958 1.3159,4.92187 1.3159,1.72608 3.7597,1.72608 z"
         style="font-style:normal;font-variant:normal;font-weight:normal;font-stretch:normal;font-size:35.00000381px;line-height:125%;font-family:Roboto;-inkscape-font-specification:Roboto;text-align:center;text-anchor:middle"
         id="path9907" />
      <path
         d="m -1233.7168,290.17054 q -3.7598,0 -6.1182,-2.46094 -2.3584,-2.47802 -2.3584,-6.61377 l 0,-0.58105 q 0,-2.75147 1.0425,-4.90479 1.0596,-2.17041 2.9395,-3.38379 1.8969,-1.23046 4.1015,-1.23046 3.606,0 5.6055,2.37548 1.9995,2.37549 1.9995,6.80176 l 0,1.31592 -12.5268,0 q 0.068,2.73438 1.5893,4.42627 1.5381,1.67481 3.8965,1.67481 1.6748,0 2.8369,-0.6836 1.1621,-0.68359 2.0337,-1.81152 l 1.9312,1.5039 q -2.3243,3.57178 -6.9727,3.57178 z m -0.3931,-16.57715 q -1.914,0 -3.2129,1.40137 -1.2988,1.38428 -1.6064,3.89648 l 9.2627,0 0,-0.23925 q -0.1367,-2.40967 -1.2988,-3.72559 -1.1621,-1.33301 -3.1446,-1.33301 z"
         style="font-style:normal;font-variant:normal;font-weight:normal;font-stretch:normal;font-size:35.00000381px;line-height:125%;font-family:Roboto;-inkscape-font-specification:Roboto;text-align:center;text-anchor:middle"
         id="path9909" />
      <path
         d="m -1194.564,289.82874 -3.2983,0 0,-11.50146 -12.544,0 0,11.50146 -3.2812,0 0,-24.88281 3.2812,0 0,10.69824 12.544,0 0,-10.69824 3.2983,0 0,24.88281 z"
         style="font-style:normal;font-variant:normal;font-weight:normal;font-stretch:normal;font-size:35.00000381px;line-height:125%;font-family:Roboto;-inkscape-font-specification:Roboto;text-align:center;text-anchor:middle"
         id="path9911" />
      <path
         d="m -1185.7969,289.82874 -3.1616,0 0,-18.49121 3.1616,0 0,18.49121 z m -3.4179,-23.39599 q 0,-0.76905 0.4614,-1.29883 0.4785,-0.52979 1.4013,-0.52979 0.9229,0 1.4014,0.52979 0.4785,0.52978 0.4785,1.29883 0,0.76904 -0.4785,1.28173 -0.4785,0.5127 -1.4014,0.5127 -0.9228,0 -1.4013,-0.5127 -0.4614,-0.51269 -0.4614,-1.28173 z"
         style="font-style:normal;font-variant:normal;font-weight:normal;font-stretch:normal;font-size:35.00000381px;line-height:125%;font-family:Roboto;-inkscape-font-specification:Roboto;text-align:center;text-anchor:middle"
         id="path9913" />
      <path
         d="m -1165.1352,280.78822 q 0,4.22119 -1.9312,6.80176 -1.9311,2.58056 -5.2295,2.58056 -3.3667,0 -5.2978,-2.13623 l 0,8.90381 -3.1617,0 0,-25.60059 2.8882,0 0.1538,2.05078 q 1.9312,-2.39257 5.3662,-2.39257 3.3326,0 5.2637,2.5122 1.9483,2.51221 1.9483,6.98975 l 0,0.29053 z m -3.1617,-0.35889 q 0,-3.12744 -1.333,-4.93897 -1.333,-1.81152 -3.6572,-1.81152 -2.8711,0 -4.3066,2.54639 l 0,8.83545 q 1.4184,2.5293 4.3408,2.5293 2.2729,0 3.6059,-1.79444 1.3501,-1.81152 1.3501,-5.36621 z"
         style="font-style:normal;font-variant:normal;font-weight:normal;font-stretch:normal;font-size:35.00000381px;line-height:125%;font-family:Roboto;-inkscape-font-specification:Roboto;text-align:center;text-anchor:middle"
         id="path9915" />
      <path
         d="m -1145.5161,280.78822 q 0,4.22119 -1.9312,6.80176 -1.9311,2.58056 -5.2294,2.58056 -3.3667,0 -5.2979,-2.13623 l 0,8.90381 -3.1616,0 0,-25.60059 2.8882,0 0.1538,2.05078 q 1.9311,-2.39257 5.3662,-2.39257 3.3325,0 5.2637,2.5122 1.9482,2.51221 1.9482,6.98975 l 0,0.29053 z m -3.1616,-0.35889 q 0,-3.12744 -1.333,-4.93897 -1.333,-1.81152 -3.6573,-1.81152 -2.871,0 -4.3066,2.54639 l 0,8.83545 q 1.4185,2.5293 4.3408,2.5293 2.273,0 3.606,-1.79444 1.3501,-1.81152 1.3501,-5.36621 z"
         style="font-style:normal;font-variant:normal;font-weight:normal;font-stretch:normal;font-size:35.00000381px;line-height:125%;font-family:Roboto;-inkscape-font-specification:Roboto;text-align:center;text-anchor:middle"
         id="path9917" />
      <path
         d="m -1138.082,289.82874 -3.1616,0 0,-18.49121 3.1616,0 0,18.49121 z m -3.418,-23.39599 q 0,-0.76905 0.4614,-1.29883 0.4786,-0.52979 1.4014,-0.52979 0.9229,0 1.4014,0.52979 0.4785,0.52978 0.4785,1.29883 0,0.76904 -0.4785,1.28173 -0.4785,0.5127 -1.4014,0.5127 -0.9228,0 -1.4014,-0.5127 -0.4614,-0.51269 -0.4614,-1.28173 z"
         style="font-style:normal;font-variant:normal;font-weight:normal;font-stretch:normal;font-size:35.00000381px;line-height:125%;font-family:Roboto;-inkscape-font-specification:Roboto;text-align:center;text-anchor:middle"
         id="path9919" />
      <path
         d="m -1125.3672,290.17054 q -3.7597,0 -6.1181,-2.46094 -2.3584,-2.47802 -2.3584,-6.61377 l 0,-0.58105 q 0,-2.75147 1.0424,-4.90479 1.0596,-2.17041 2.9395,-3.38379 1.897,-1.23046 4.1016,-1.23046 3.6059,0 5.6054,2.37548 1.9995,2.37549 1.9995,6.80176 l 0,1.31592 -12.5268,0 q 0.068,2.73438 1.5893,4.42627 1.5381,1.67481 3.8965,1.67481 1.6748,0 2.8369,-0.6836 1.1621,-0.68359 2.0337,-1.81152 l 1.9312,1.5039 q -2.3242,3.57178 -6.9727,3.57178 z m -0.393,-16.57715 q -1.9141,0 -3.2129,1.40137 -1.2989,1.38428 -1.6065,3.89648 l 9.2627,0 0,-0.23925 q -0.1367,-2.40967 -1.2988,-3.72559 -1.1621,-1.33301 -3.1445,-1.33301 z"
         style="font-style:normal;font-variant:normal;font-weight:normal;font-stretch:normal;font-size:35.00000381px;line-height:125%;font-family:Roboto;-inkscape-font-specification:Roboto;text-align:center;text-anchor:middle"
         id="path9921" />
    </g>
  </g>
</svg>
